<svg id="baseline-visibility_off-24px" xmlns="http://www.w3.org/2000/svg" width="20" height="20" viewBox="0 0 20 20">
  <path id="Path_1083" data-name="Path 1083" d="M0,0H20V20H0ZM0,0H20V20H0ZM0,0H20V20H0ZM0,0H20V20H0Z" fill="none"/>
  <path id="Path_1084" data-name="Path 1084" d="M10.167,6.333A4.168,4.168,0,0,1,14.333,10.5a4.044,4.044,0,0,1-.3,1.525l2.433,2.433A9.848,9.848,0,0,0,19.325,10.5a9.856,9.856,0,0,0-9.167-6.25,9.7,9.7,0,0,0-3.317.583l1.8,1.8A4.044,4.044,0,0,1,10.167,6.333ZM1.833,4.058l1.9,1.9.383.383A9.837,9.837,0,0,0,1,10.5a9.851,9.851,0,0,0,12.817,5.55l.35.35,2.442,2.433,1.058-1.058L2.892,3ZM6.442,8.667,7.733,9.958a2.351,2.351,0,0,0-.067.542,2.5,2.5,0,0,0,2.5,2.5,2.351,2.351,0,0,0,.542-.067L12,14.225A4.139,4.139,0,0,1,6.442,8.667Zm3.592-.65,2.625,2.625.017-.133a2.5,2.5,0,0,0-2.5-2.5Z" transform="translate(-0.167 -0.5)" fill="#fff"/>
</svg>
