<svg xmlns="http://www.w3.org/2000/svg" width="12" height="7.799" viewBox="0 0 12 7.799">
  <g id="_ionicons_svg_ios-people" transform="translate(-31.5 -110.2)">
    <path id="Path_7249" data-name="Path 7249" d="M122.7,116.2c-.3-.107-.786-.112-1-.2a1.413,1.413,0,0,1-.464-.216,2.882,2.882,0,0,1-.077-.762,1.23,1.23,0,0,0,.264-.374,4.171,4.171,0,0,0,.128-.735s.176.075.245-.278c.059-.3.171-.465.141-.69s-.155-.171-.155-.171a2.006,2.006,0,0,0,.155-1,1.729,1.729,0,0,0-3.445,0,2.036,2.036,0,0,0,.152,1s-.125-.053-.155.171.08.385.141.69c.069.355.245.278.245.278a4.211,4.211,0,0,0,.128.735,1.23,1.23,0,0,0,.264.374,2.882,2.882,0,0,1-.077.762,1.36,1.36,0,0,1-.464.214c-.213.083-.7.094-1,.2a1.885,1.885,0,0,0-1.22,1.8h7.415A1.882,1.882,0,0,0,122.7,116.2Z" transform="translate(-82.717 0)" fill="#fff"/>
    <path id="Path_7250" data-name="Path 7250" d="M34.4,162.775a1.818,1.818,0,0,0,.893-.248c-.414-.626-.19-1.357-.275-2.039a1.127,1.127,0,0,0-1.248-1.088h-.011a1.13,1.13,0,0,0-1.237,1.088c-.086.68.152,1.493-.273,2.039a1.683,1.683,0,0,0,.9.221,1.347,1.347,0,0,1-.027.448.676.676,0,0,1-.321.147,6.215,6.215,0,0,0-.692.192,1.122,1.122,0,0,0-.6.992h2.146a1.918,1.918,0,0,1,.855-.794,1.8,1.8,0,0,1,.66-.139s.1-.16-.233-.221a2.283,2.283,0,0,1-.513-.179C34.365,163.135,34.4,162.775,34.4,162.775Zm6.2,0a1.818,1.818,0,0,1-.893-.248c.414-.626.19-1.357.275-2.039a1.127,1.127,0,0,1,1.248-1.088h.011a1.13,1.13,0,0,1,1.237,1.088c.086.68-.152,1.493.273,2.039a1.683,1.683,0,0,1-.9.221,1.347,1.347,0,0,0,.027.448.676.676,0,0,0,.321.147,6.215,6.215,0,0,1,.692.192,1.122,1.122,0,0,1,.6.992H41.354a1.918,1.918,0,0,0-.855-.794,1.8,1.8,0,0,0-.66-.139s-.1-.16.233-.221a2.283,2.283,0,0,0,.513-.179C40.635,163.135,40.6,162.775,40.6,162.775Z" transform="translate(0 -47.879)" fill="#fff"/>
  </g>
</svg>
