<svg xmlns="http://www.w3.org/2000/svg" width="12" height="11.996" viewBox="0 0 12 11.996">
  <path id="Path_7247" data-name="Path 7247" d="M208.753,49.628,200.1,58.282a.337.337,0,0,0-.1.24v1.135a.339.339,0,0,0,.338.338h1.127a.347.347,0,0,0,.244-.1l8.658-8.654a.339.339,0,0,0,0-.48l-1.135-1.135A.339.339,0,0,0,208.753,49.628Zm3.055-.814-.617-.617-.009-.009a.758.758,0,0,0-.493-.188.742.742,0,0,0-.5.193l-.484.488a.173.173,0,0,0,0,.24l.446.446.93.93a.171.171,0,0,0,.244,0l.484-.484a.73.73,0,0,0,.189-.5A.775.775,0,0,0,211.807,48.814Z" transform="translate(-200 -48)" fill="#fff"/>
</svg>
