<svg xmlns="http://www.w3.org/2000/svg" width="15.456" height="15.455" viewBox="0 0 15.456 15.455">
  <defs>
    <style>
      .cls-1 {
        fill: #fff;
      }
    </style>
  </defs>
  <path id="Search" class="cls-1" d="M14.543,15.455a.917.917,0,0,1-.661-.283l-4.228-4.23,0,0A5.931,5.931,0,0,1,6.1,12.118H6.072A6.083,6.083,0,0,1,1.755,1.761,6.046,6.046,0,0,1,6,0h.026A6.108,6.108,0,0,1,12.1,6.081a5.946,5.946,0,0,1-1.16,3.568l4.232,4.233a.913.913,0,0,1-.629,1.573ZM6.01,1.212a4.83,4.83,0,0,0-3.371,8.26,4.857,4.857,0,0,0,3.429,1.434h.019a4.847,4.847,0,0,0-.054-9.694Z"/>
</svg>
