<svg id="dollar-symbol" xmlns="http://www.w3.org/2000/svg" width="6.218" height="12" viewBox="0 0 6.218 12">
  <path id="Path_508" data-name="Path 508" d="M121.43,5.451a14.447,14.447,0,0,0-1.467-.664,3.294,3.294,0,0,1-.805-.451.7.7,0,0,1,.173-1.247,1.414,1.414,0,0,1,.493-.1,3.744,3.744,0,0,1,1.854.367c.292.141.389.1.488-.208.1-.322.191-.649.287-.974a.34.34,0,0,0-.221-.454,4.713,4.713,0,0,0-1.17-.349c-.53-.082-.53-.084-.533-.617,0-.751,0-.751-.756-.751-.109,0-.218,0-.327,0-.352.01-.411.072-.421.426,0,.159,0,.317,0,.478,0,.471,0,.463-.456.627a2.514,2.514,0,0,0-1.836,2.33,2.387,2.387,0,0,0,1.351,2.283,14.932,14.932,0,0,0,1.688.758,2.507,2.507,0,0,1,.615.362.843.843,0,0,1-.2,1.477,2.021,2.021,0,0,1-1.083.141,4.834,4.834,0,0,1-1.651-.493c-.3-.159-.394-.116-.5.213-.089.285-.169.573-.248.86-.107.387-.067.478.3.659a5.27,5.27,0,0,0,1.487.426c.4.064.414.082.419.5,0,.188,0,.379,0,.568a.337.337,0,0,0,.362.382c.278,0,.558,0,.835,0a.318.318,0,0,0,.345-.359c0-.258.012-.518,0-.776a.41.41,0,0,1,.354-.466,2.8,2.8,0,0,0,1.46-.937A2.634,2.634,0,0,0,121.43,5.451Z" transform="translate(-116.652 0)" fill="#fff"/>
</svg>
