<svg xmlns="http://www.w3.org/2000/svg" width="12.308" height="13.59" viewBox="0 0 12.308 13.59">
  <defs>
    <style>
      .cls-1 {
        fill: #fff;
      }
    </style>
  </defs>
  <path id="_ionicons_svg_md-share" class="cls-1" d="M74.251,53.629a1.868,1.868,0,0,0-1.337.512l-4.9-2.834a1.7,1.7,0,0,0,0-.956l4.834-2.8a2.052,2.052,0,1,0-.652-1.5,2.283,2.283,0,0,0,.069.478l-4.834,2.8a2.064,2.064,0,0,0-1.406-.546A2.03,2.03,0,0,0,64,50.829a2.064,2.064,0,0,0,3.463,1.5l4.868,2.834a1.713,1.713,0,0,0-.069.444,1.988,1.988,0,1,0,1.988-1.98Z" transform="translate(-64 -44)"/>
</svg>
