<svg xmlns="http://www.w3.org/2000/svg" width="12" height="12" viewBox="0 0 12 12">
  <g id="telephone" transform="translate(-0.006)">
    <g id="Group_7289" data-name="Group 7289" transform="translate(0.006)">
      <path id="Path_7257" data-name="Path 7257" d="M9.157,52.944a.843.843,0,0,0-1.275,0c-.3.3-.6.591-.889.892a.176.176,0,0,1-.245.045c-.193-.105-.4-.19-.584-.306a9.247,9.247,0,0,1-2.229-2.029,5.281,5.281,0,0,1-.8-1.28.183.183,0,0,1,.045-.235c.3-.288.589-.584.882-.879a.847.847,0,0,0,0-1.3c-.233-.235-.466-.466-.7-.7s-.478-.483-.721-.721a.849.849,0,0,0-1.275,0c-.3.3-.589.6-.894.889a1.451,1.451,0,0,0-.456.979,4.149,4.149,0,0,0,.321,1.786A10.852,10.852,0,0,0,2.261,53.29a11.919,11.919,0,0,0,3.947,3.088,5.709,5.709,0,0,0,2.187.636,1.6,1.6,0,0,0,1.375-.523c.255-.286.544-.546.814-.819a.852.852,0,0,0,.005-1.3Q9.875,53.657,9.157,52.944Z" transform="translate(-0.006 -45.018)" fill="#fff"/>
      <path id="Path_7258" data-name="Path 7258" d="M240.484,99.45l.9-.153a4.018,4.018,0,0,0-3.4-3.3l-.126.9a3.106,3.106,0,0,1,2.63,2.55Z" transform="translate(-231.841 -93.574)" fill="#fff"/>
      <path id="Path_7259" data-name="Path 7259" d="M246.665,1.887A6.6,6.6,0,0,0,242.88,0l-.126.9a5.76,5.76,0,0,1,4.874,4.723l.9-.153A6.649,6.649,0,0,0,246.665,1.887Z" transform="translate(-236.523)" fill="#fff"/>
    </g>
  </g>
</svg>
