<svg xmlns="http://www.w3.org/2000/svg" xmlns:xlink="http://www.w3.org/1999/xlink" width="18.487" height="18.487" viewBox="0 0 18.487 18.487">
  <defs>
    <linearGradient id="linear-gradient" x1="50" x2="50" y2="100" gradientUnits="objectBoundingBox">
      <stop offset="0" stop-color="#f94f4f"/>
      <stop offset="1" stop-color="#8e3ddf"/>
    </linearGradient>
  </defs>
  <path id="_ionicons_svg_md-settings" d="M64.262,58.169a5.781,5.781,0,0,0,.047-.924c0-.324-.047-.6-.047-.924L66.247,54.8a.424.424,0,0,0,.095-.6L64.45,51.005a.46.46,0,0,0-.567-.185l-2.364.924a6.881,6.881,0,0,0-1.607-.924l-.331-2.449a.507.507,0,0,0-.473-.37H55.327a.507.507,0,0,0-.473.37l-.378,2.449a8.006,8.006,0,0,0-1.607.924L50.5,50.82a.443.443,0,0,0-.567.185l-1.891,3.189a.558.558,0,0,0,.095.6l2.033,1.525c0,.324-.047.6-.047.924s.047.6.047.924l-1.985,1.525a.425.425,0,0,0-.095.6l1.891,3.189a.46.46,0,0,0,.567.185l2.364-.924a6.879,6.879,0,0,0,1.607.924l.378,2.449a.458.458,0,0,0,.473.37h3.782a.507.507,0,0,0,.473-.37l.379-2.449a8,8,0,0,0,1.607-.924l2.364.924a.443.443,0,0,0,.567-.185l1.891-3.189a.557.557,0,0,0-.095-.6ZM57.218,60.48a3.236,3.236,0,1,1,3.309-3.235A3.252,3.252,0,0,1,57.218,60.48Z" transform="translate(-47.998 -48.001)" fill="url(#linear-gradient)"/>
</svg>
