<svg xmlns="http://www.w3.org/2000/svg" width="12" height="12" viewBox="0 0 12 12">
  <g id="Group_7278" data-name="Group 7278" transform="translate(-15 -204)">
    <path id="Path_105" data-name="Path 105" d="M12.5,4h-.75V8.5a.75.75,0,0,1-.75.75H6.371L5,10.75H8.75L11,13V10.75h1.5a.75.75,0,0,0,.75-.75V4.75A.75.75,0,0,0,12.5,4Z" transform="translate(13.75 203)" fill="#fff"/>
    <path id="Path_106" data-name="Path 106" d="M.75,0h7.5A.75.75,0,0,1,9,.75V6a.75.75,0,0,1-.75.75H4.5L2.25,9V6.75H.75A.75.75,0,0,1,0,6V.75A.75.75,0,0,1,.75,0Z" transform="translate(15 204)" fill="#fff"/>
  </g>
</svg>
