<svg id="atm" xmlns="http://www.w3.org/2000/svg" width="13.569" height="13.569" viewBox="0 0 13.569 13.569">
  <defs>
    <style>
      .cls-1 {
        fill: #fff;
      }
    </style>
  </defs>
  <path id="Path_1555" data-name="Path 1555" class="cls-1" d="M194.131,176.333A1.731,1.731,0,1,1,192.4,174.6,1.731,1.731,0,0,1,194.131,176.333Zm0,0" transform="translate(-185.615 -169.975)"/>
  <path id="Path_1556" data-name="Path 1556" class="cls-1" d="M13.078.49A1.665,1.665,0,0,0,11.893,0H1.674A1.675,1.675,0,0,0,0,1.675v1.7A1.674,1.674,0,0,0,1.674,5.053h.085V2.129a.4.4,0,0,1,.4-.4h9.254a.4.4,0,0,1,.4.4V5.053h.085a1.675,1.675,0,0,0,1.675-1.675v-1.7A1.665,1.665,0,0,0,13.078.49Zm0,0" transform="translate(0.001 0)"/>
  <path id="Path_1557" data-name="Path 1557" class="cls-1" d="M96.4,105.125a1.249,1.249,0,0,0,1.249,1.249h5.961a1.249,1.249,0,0,0,1.249-1.249V95.332H96.4Zm4.23-8.488A2.526,2.526,0,1,1,98.1,99.164,2.529,2.529,0,0,1,100.628,96.638ZM98.5,103.45h4.258a.4.4,0,1,1,0,.8H98.5a.4.4,0,0,1,0-.8Zm0,0" transform="translate(-93.844 -92.806)"/>
</svg>
