<svg xmlns="http://www.w3.org/2000/svg" width="12" height="11.473" viewBox="0 0 12 11.473">
  <path id="Path_7251" data-name="Path 7251" d="M17.2,342.85a.617.617,0,0,0-.178.547l.525,3.063a.619.619,0,0,1-.9.652l-2.75-1.446a.616.616,0,0,0-.576,0l-2.75,1.446a.618.618,0,0,1-.9-.652l.077-.451L10.2,343.4a.618.618,0,0,0-.178-.547L7.8,340.682a.619.619,0,0,1,.343-1.055l3.074-.446a.619.619,0,0,0,.466-.338l1.375-2.786a.618.618,0,0,1,1.109,0l1.375,2.786a.617.617,0,0,0,.466.338l.95.138,2.124.309a.619.619,0,0,1,.343,1.055Zm0,0" transform="translate(-7.61 -335.711)" fill="#fff"/>
</svg>
