<svg xmlns="http://www.w3.org/2000/svg" width="11.498" height="12" viewBox="0 0 11.498 12">
  <g id="Term" transform="translate(0 0)">
    <path id="Path_1552" data-name="Path 1552" d="M8.616,5.475h.065q.169,0,.334.021V1.416A1.42,1.42,0,0,0,7.593,0H1.423A1.42,1.42,0,0,0,0,1.416v8.14a1.42,1.42,0,0,0,1.422,1.415h4.12A3.555,3.555,0,0,1,5,9.075a3.612,3.612,0,0,1,3.616-3.6ZM5.1,2.311H7.209a.351.351,0,1,1,0,.7H5.1a.351.351,0,1,1,0-.7Zm0,1.406H7.209a.351.351,0,1,1,0,.7H5.1a.351.351,0,1,1,0-.7ZM3.915,8.66H1.807a.351.351,0,1,1,0-.7H3.915a.351.351,0,1,1,0,.7Zm0-1.429H1.807a.351.351,0,1,1,0-.7H3.915a.351.351,0,1,1,0,.7Zm0-1.406H1.807a.351.351,0,1,1,0-.7H3.915a.351.351,0,1,1,0,.7Zm0-1.406H1.807a.351.351,0,1,1,0-.7H3.915a.351.351,0,1,1,0,.7Zm0-1.406H1.807a.351.351,0,1,1,0-.7H3.915a.351.351,0,1,1,0,.7Zm.833,2.46A.352.352,0,0,1,5.1,5.123H6.116a.351.351,0,1,1,0,.7H5.1A.352.352,0,0,1,4.748,5.474Zm0,0" transform="translate(0)" fill="#fff"/>
    <path id="Path_1553" data-name="Path 1553" d="M246.411,263.557a2.914,2.914,0,0,0-2.038-.877h-.053a2.934,2.934,0,1,0,2.091.877Zm-.838,1.58-1.12,1.4a.353.353,0,0,1-.483.065l-.835-.605a.353.353,0,0,1,.414-.572l.563.408.91-1.134a.353.353,0,0,1,.551.442Zm0,0" transform="translate(-235.755 -256.549)" fill="#fff"/>
  </g>
</svg>
