<svg xmlns="http://www.w3.org/2000/svg" width="12" height="6.645" viewBox="0 0 12 6.645">
  <g id="Group_1981" data-name="Group 1981" transform="translate(-11887 -138)">
    <path id="Path_1551" data-name="Path 1551" d="M43.06,80.1H32.94a.943.943,0,0,0-.94.941V85.8a.943.943,0,0,0,.94.941H43.06A.943.943,0,0,0,44,85.8V81.041A.943.943,0,0,0,43.06,80.1ZM34.2,85.888h-.964a.375.375,0,0,1,0-.75H34.2a.375.375,0,0,1,0,.75Zm0-4.18h-.964a.375.375,0,0,1,0-.75H34.2a.375.375,0,0,1,0,.75ZM38,85.566a2.144,2.144,0,1,1,2.143-2.144A2.146,2.146,0,0,1,38,85.566Zm4.768.322H41.8a.375.375,0,0,1,0-.75h.964a.375.375,0,0,1,0,.75Zm0-4.18H41.8a.375.375,0,0,1,0-.75h.964a.375.375,0,0,1,0,.75Z" transform="translate(11855 57.9)" fill="#fff"/>
    <ellipse id="Ellipse_417" data-name="Ellipse 417" cx="1.307" cy="1.308" rx="1.307" ry="1.308" transform="translate(11891.693 140.069)" fill="#fff"/>
  </g>
</svg>
