<svg xmlns="http://www.w3.org/2000/svg" width="9.363" height="13.569" viewBox="0 0 9.363 13.569">
  <defs>
    <style>
      .cls-1 {
        fill: #fff;
      }
    </style>
  </defs>
  <g id="pound-currency-bold-symbol" transform="translate(-4.462)">
    <path id="Path_513" data-name="Path 513" class="cls-1" d="M13.824,11.024v2.545H4.462V11.905a3.6,3.6,0,0,0,2.3-3.016A5.4,5.4,0,0,0,6.7,8.069H4.688V5.954H6.33a8.9,8.9,0,0,1-.164-1.662C6.166,1.7,8.055,0,10.8,0a5.29,5.29,0,0,1,2.423.493l-.514,2.361a3.465,3.465,0,0,0-1.723-.369,1.737,1.737,0,0,0-1.909,1.93,6.451,6.451,0,0,0,.183,1.54h2.814V8.07H9.534a3.836,3.836,0,0,1-.186,1.458,3.522,3.522,0,0,1-1.006,1.458v.041h5.482v0Z" transform="translate(0 0)"/>
  </g>
</svg>
