<svg id="Muted" xmlns="http://www.w3.org/2000/svg" width="17.647" height="18.487" viewBox="0 0 17.647 18.487">
  <path id="Icon" d="M7.389,18.21.409,14.936A.769.769,0,0,1,0,14.219a.777.777,0,0,1,.412-.725s.609-.3,1.5-.731l5.48,2.569a3.673,3.673,0,0,0,2.777.011c1.538-.618,4-1.784,5.572-2.545l1.5.7a.839.839,0,0,1,0,1.442s-4.662,2.31-7.068,3.276a3.677,3.677,0,0,1-2.777-.01Zm0-4.976L.409,9.961A.769.769,0,0,1,0,9.244a.777.777,0,0,1,.412-.725s.609-.3,1.5-.731l5.48,2.57a3.677,3.677,0,0,0,2.777.011c1.538-.619,4-1.784,5.572-2.545l1.5.7a.839.839,0,0,1,0,1.442s-4.662,2.31-7.068,3.276a3.677,3.677,0,0,1-2.777-.011Zm0-4.975L.409,4.986A.77.77,0,0,1,0,4.268a.775.775,0,0,1,.412-.725S5.074,1.234,7.481.268a3.673,3.673,0,0,1,2.777.01l6.981,3.274a.769.769,0,0,1,.408.717.776.776,0,0,1-.412.725S12.573,7.3,10.166,8.27a3.677,3.677,0,0,1-2.777-.011Z" transform="translate(0 0)" fill="#8f90a2"/>
</svg>
