<svg xmlns="http://www.w3.org/2000/svg" width="12" height="12" viewBox="0 0 12 12">
  <path id="_ionicons_svg_ios-key" d="M56.53,52.907a3.257,3.257,0,0,0-1.079.118c-1.46-1.243-5.316-4.526-5.61-4.832A.582.582,0,0,0,49.408,48a.962.962,0,0,0-.614.277c-.2.19-.952,1-.808,1.154.433.444.548.534.727.715.268.274.816-.029,1.038.066a.425.425,0,0,1,.3.361,5.391,5.391,0,0,1-.087.684.722.722,0,0,0,.265.548.607.607,0,0,0,.45.251c.26.006.6-.369.877-.089s-.179.684-.144.981a1.089,1.089,0,0,0,.623.7c.176.037.629-.338.886-.28a.6.6,0,0,1,.317.329c.029.133-.2.721-.17.854a2.028,2.028,0,0,0,.3.5,3.249,3.249,0,0,0-.271,1.376,3.438,3.438,0,1,0,6.871,0A3.457,3.457,0,0,0,56.53,52.907Zm.669,5.247a.923.923,0,1,1,.923-.923A.922.922,0,0,1,57.2,58.154Z" transform="translate(-47.968 -48)" fill="#fff"/>
</svg>
