<svg xmlns="http://www.w3.org/2000/svg" width="31.974" height="28.777" viewBox="0 0 31.974 28.777">
  <defs>
    <style>
      .cls-1 {
        fill: #8f90a2;
      }
    </style>
  </defs>
  <path id="Path_1570" data-name="Path 1570" class="cls-1" d="M30.777,5.2H25.709L23.727,3.039A3.182,3.182,0,0,0,21.376,2H14.6a3.244,3.244,0,0,0-2.366,1.039L10.265,5.2H5.2A3.207,3.207,0,0,0,2,8.395V27.579a3.207,3.207,0,0,0,3.2,3.2H30.777a3.207,3.207,0,0,0,3.2-3.2V8.395A3.207,3.207,0,0,0,30.777,5.2ZM22.783,23.583v-4H13.191v4L8.155,18.547a.791.791,0,0,1,0-1.135l5.036-5.02v4h9.592v-4l5.036,5.036a.791.791,0,0,1,0,1.135Z" transform="translate(-2 -2)"/>
</svg>
