<svg xmlns="http://www.w3.org/2000/svg" width="10.437" height="13.569" viewBox="0 0 10.437 13.569">
  <defs>
    <style>
      .cls-1 {
        fill: #fff;
      }
    </style>
  </defs>
  <path id="_ionicons_svg_ios-lock" class="cls-1" d="M105.133,52.689h-.783V51.166a3.131,3.131,0,1,0-6.262-.042v1.566H97.3a1.309,1.309,0,0,0-1.3,1.3v6.262a1.309,1.309,0,0,0,1.3,1.3h7.828a1.309,1.309,0,0,0,1.3-1.3V53.993A1.309,1.309,0,0,0,105.133,52.689Zm-3.457,4.071V59a.468.468,0,0,1-.434.47.457.457,0,0,1-.479-.457V56.759a1.044,1.044,0,1,1,.913,0Zm1.761-4.071H99V51.123a2.218,2.218,0,0,1,4.436,0Z" transform="translate(-96 -47.992)"/>
</svg>
