<svg xmlns="http://www.w3.org/2000/svg" xmlns:xlink="http://www.w3.org/1999/xlink" width="384" height="259.659" viewBox="0 0 384 259.659">
  <defs>
    <linearGradient id="linear-gradient" x1="50" x2="50" y2="100" gradientUnits="objectBoundingBox">
      <stop offset="0" stop-color="#f94f4f"/>
      <stop offset="1" stop-color="#8e3ddf"/>
    </linearGradient>
  </defs>
  <g id="Group_7288" data-name="Group 7288" transform="translate(-15 -122.297)">
    <circle id="Ellipse_343" data-name="Ellipse 343" cx="13.166" cy="13.166" r="13.166" transform="translate(250.127 154.66)" fill="#f2f2f2"/>
    <rect id="Rectangle_1735" data-name="Rectangle 1735" width="264.14" height="141.122" transform="matrix(0.853, 0.522, -0.522, 0.853, 88.65, 122.297)" fill="#484467"/>
    <path id="Path_1347" data-name="Path 1347" d="M626.217,417.772c-2.057-4.731-5.225-8.887-11.561-12.384a40.38,40.38,0,0,0-10.45-4.114,25.6,25.6,0,0,0,6.706-4.526,23.192,23.192,0,0,0,6.418-9.586,31.728,31.728,0,0,0,1.44-11.6c-.453-6.912-1.81-13.618-5.431-18.432s-8.722-8.517-15.47-11.109c-5.184-1.975-10.491-3.209-18.72-3.662V316.066l-16.457,10.286V342.4H549.525V325.529l-16.869-9.463V342.4H496.821l11.52,19.749c3.559,0,5.97.333,7.2.946a5.441,5.441,0,0,1,2.674,2.469c.535,1.029.782,3.456.782,7.2v71.26c0,3.7-.247,6.089-.782,7.159s-.823,2.016-2.1,2.592-1.317.535-4.855.535h-.041l-14.4,19.749h35.795v26.332h16.869V474.056H562.65v26.332h16.457v-26.5c10.7-.535,18.309-1.934,24.439-4.238,7.941-2.962,14.03-7.282,18.391-12.96s6.13-14.359,6.5-21.065C628.726,429.663,628.068,421.969,626.217,417.772Zm-76.732-53.157h0v-.547h11.5c6.472,0,28.039-2.156,28.4,15.458s-28.4,16.893-28.4,16.893h-11.5v-1.358h0Zm0,50.195H562.65c2.674,0,11.874.407,15.223.56a14.6,14.6,0,0,1,4.016.716c.473.161.922.342,1.407.543a20.464,20.464,0,0,1,5.674,2.872,11.852,11.852,0,0,1,2.933,2.757,15.722,15.722,0,0,1,.971,1.518,15.418,15.418,0,0,1,1.716,4.234,17.175,17.175,0,0,1,.6,4.411,14.386,14.386,0,0,1-2.053,8.105,19.268,19.268,0,0,1-8.879,7.324c-9.447,4.3-21.612,3.991-21.612,3.991H549.484Z" transform="translate(-332.272 -119.439)" fill="url(#linear-gradient)"/>
    <path id="Path_1348" data-name="Path 1348" d="M735.1,238.968a1.414,1.414,0,0,0-.648-.719,2.216,2.216,0,0,0-.586-.239,1.432,1.432,0,0,0,.376-.263,1.352,1.352,0,0,0,.36-.556,1.9,1.9,0,0,0,.081-.673,2.054,2.054,0,0,0-.3-1.07,1.906,1.906,0,0,0-.867-.645,3.159,3.159,0,0,0-1.049-.213v-1.526l-.923.6v.931H730.8v-.979l-.946-.549v1.528H727.85l.646,1.146a1.007,1.007,0,0,1,.4.055.31.31,0,0,1,.15.143,1.186,1.186,0,0,1,.044.418v4.136a1.187,1.187,0,0,1-.044.415c-.03.062-.046.117-.118.15s-.074.031-.272.031h0l-.807,1.146h2.007v1.528h.946v-1.528h.738v1.528h.922v-1.538a4.375,4.375,0,0,0,1.37-.246,2.253,2.253,0,0,0,1.031-.752,2.386,2.386,0,0,0,.364-1.223,2.775,2.775,0,0,0-.124-1.036Zm-4.3-3.085h0v-.032h.645c.363,0,1.572-.125,1.592.9s-1.592.98-1.592.98H730.8v-.079h0Zm0,2.913h.738c.15,0,.666.024.853.033a.794.794,0,0,1,.225.042c.026.009.052.02.079.032a1.132,1.132,0,0,1,.318.167.676.676,0,0,1,.164.16,1.021,1.021,0,0,1,.151.334,1.032,1.032,0,0,1,.034.256.859.859,0,0,1-.115.47,1.091,1.091,0,0,1-.5.425,3.108,3.108,0,0,1-1.212.232H730.8Z" transform="translate(-468.248 -70.588)" fill="#8e3ddf" opacity="0.3"/>
    <circle id="Ellipse_344" data-name="Ellipse 344" cx="4.826" cy="4.826" r="4.826" transform="translate(338.552 308.403)" fill="#ff6584"/>
    <line id="Line_8" data-name="Line 8" y1="54.947" transform="translate(381.421 310.814)" fill="#3f3d56" stroke="#534e73" stroke-miterlimit="10" stroke-width="2"/>
    <circle id="Ellipse_345" data-name="Ellipse 345" cx="7.77" cy="7.77" r="7.77" transform="translate(373.651 303.043)" fill="#534e73"/>
    <path id="Path_1349" data-name="Path 1349" d="M974.533,635.149c-11.224,17.212-8.148,39.1-8.148,39.1s21.272-6.015,32.5-23.227,8.149-39.1,8.149-39.1S985.756,617.937,974.533,635.149Z" transform="translate(-608.415 -293.57)" fill="url(#linear-gradient)"/>
    <path id="Path_1350" data-name="Path 1350" d="M898.834,680.993s-.273-.044-.776-.145c-.4-.081-.953-.2-1.628-.357-6.028-1.421-22.056-6.226-32.535-18.859-13.115-15.818-12.563-37.918-12.563-37.918s20.053,3.258,33.267,17.463q.859.916,1.671,1.9c11.412,13.763,12.476,32.282,12.56,36.86C898.842,680.62,898.834,680.993,898.834,680.993Z" transform="translate(-540.924 -300.51)" fill="url(#linear-gradient)"/>
    <path id="Path_1351" data-name="Path 1351" d="M900.093,635.149c11.224,17.212,8.148,39.1,8.148,39.1s-21.273-6.015-32.5-23.227-8.149-39.1-8.149-39.1S888.869,617.937,900.093,635.149Z" transform="translate(-550.271 -293.57)" fill="none" stroke="#534e73" stroke-miterlimit="10" stroke-width="2"/>
    <path id="Path_1352" data-name="Path 1352" d="M946.079,704.916c-.3.358-.558.663-.773.913-.477.544-.747.828-.747.828s-.328-.413-.881-1.186c-3.032-4.226-12.784-19.254-12.031-36.613q.061-1.365.2-2.7.859.916,1.671,1.9C944.931,681.82,945.995,700.338,946.079,704.916Z" transform="translate(-588.172 -325.492)" opacity="0.1"/>
    <path id="Path_1353" data-name="Path 1353" d="M965.629,621.7c-.887,20.529-16.126,36.544-16.126,36.544s-13.8-17.27-12.914-37.8S952.715,583.9,952.715,583.9,966.518,601.172,965.629,621.7Z" transform="translate(-591.081 -277.079)" fill="url(#linear-gradient)"/>
    <line id="Line_9" data-name="Line 9" y1="72.924" x2="3.35" transform="translate(358.422 307.661)" fill="none" stroke="#534e73" stroke-miterlimit="10" stroke-width="2"/>
    <circle id="Ellipse_346" data-name="Ellipse 346" cx="17.58" cy="17.58" r="17.58" transform="translate(94.994 256.57)" fill="url(#linear-gradient)"/>
    <circle id="Ellipse_347" data-name="Ellipse 347" cx="17.58" cy="17.58" r="17.58" transform="translate(65.111 297.946)" fill="url(#linear-gradient)"/>
    <circle id="Ellipse_348" data-name="Ellipse 348" cx="17.58" cy="17.58" r="17.58" transform="translate(28.333 330.989)" fill="url(#linear-gradient)"/>
    <line id="Line_11" data-name="Line 11" y1="31.89" transform="translate(45.898 348.473)" fill="#3f3d56" stroke="#534e73" stroke-miterlimit="10" stroke-width="2"/>
    <circle id="Ellipse_349" data-name="Ellipse 349" cx="4.51" cy="4.51" r="4.51" transform="translate(41.388 343.963)" fill="#534e73"/>
    <path id="Path_1354" data-name="Path 1354" d="M188.622,715.2s-.644-13.857-13.851-12.246" transform="translate(-142.724 -347.071)" fill="#534e73"/>
    <line id="Line_12" data-name="Line 12" y1="106.371" transform="translate(112.585 274.216)" fill="#3f3d56" stroke="#534e73" stroke-miterlimit="10" stroke-width="2"/>
    <circle id="Ellipse_350" data-name="Ellipse 350" cx="4.51" cy="4.51" r="4.51" transform="translate(108.075 269.656)" fill="#534e73"/>
    <circle id="Ellipse_351" data-name="Ellipse 351" cx="4.51" cy="4.51" r="4.51" transform="translate(94.224 346.615)" fill="#534e73"/>
    <path id="Path_1355" data-name="Path 1355" d="M350.707,542.811s-.644-13.857-13.851-12.246" transform="translate(-238.122 -245.61)" fill="#534e73"/>
    <path id="Path_1356" data-name="Path 1356" d="M350.707,638.285s-.644-13.856-13.851-12.246" transform="translate(-238.122 -301.802)" fill="#534e73"/>
    <path id="Path_1357" data-name="Path 1357" d="M350.707,719.8s2.9-26.933-13.851-28.222" transform="translate(-238.122 -340.454)" fill="none" stroke="#534e73" stroke-miterlimit="10" stroke-width="2"/>
    <circle id="Ellipse_352" data-name="Ellipse 352" cx="4.51" cy="4.51" r="4.51" transform="translate(121.929 346.615)" fill="#534e73"/>
    <path id="Path_1358" data-name="Path 1358" d="M370.253,719.8s-2.9-26.933,13.851-28.222" transform="translate(-257.666 -340.454)" fill="none" stroke="#534e73" stroke-miterlimit="10" stroke-width="2"/>
    <circle id="Ellipse_353" data-name="Ellipse 353" cx="4.51" cy="4.51" r="4.51" transform="translate(122.203 304.313)" fill="#534e73"/>
    <path id="Path_1359" data-name="Path 1359" d="M370.92,615.545s-2.9-25.5,13.851-26.785" transform="translate(-258.058 -279.938)" fill="none" stroke="#534e73" stroke-miterlimit="10" stroke-width="2"/>
    <line id="Line_13" data-name="Line 13" y1="64.93" transform="translate(82.708 315.507)" fill="#3f3d56" stroke="#534e73" stroke-miterlimit="10" stroke-width="2"/>
    <circle id="Ellipse_354" data-name="Ellipse 354" cx="4.51" cy="4.51" r="4.51" transform="translate(78.198 310.997)" fill="#534e73"/>
    <path id="Path_1360" data-name="Path 1360" d="M278.089,631.943s-.644-13.856-13.851-12.246" transform="translate(-195.382 -298.07)" fill="#534e73"/>
    <path id="Path_1361" data-name="Path 1361" d="M278.089,719.847s2.9-26.646-13.851-27.934" transform="translate(-195.382 -340.65)" fill="none" stroke="#534e73" stroke-miterlimit="10" stroke-width="2"/>
    <circle id="Ellipse_355" data-name="Ellipse 355" cx="4.51" cy="4.51" r="4.51" transform="translate(64.347 346.753)" fill="#534e73"/>
    <circle id="Ellipse_356" data-name="Ellipse 356" cx="7.406" cy="7.406" r="7.406" transform="translate(322.951 266.982)" fill="#f2f2f2"/>
    <path id="Path_1362" data-name="Path 1362" d="M659.6,635.011c-9.447,4.3-21.613,3.991-21.613,3.991H624.821v-2.514a81.654,81.654,0,0,1,20.983-2.423A96.135,96.135,0,0,1,659.6,635.011Z" transform="translate(-407.609 -306.603)" opacity="0.1"/>
    <path id="Path_1363" data-name="Path 1363" d="M663.067,643.648c0,4.546-13.265,8.229-29.623,8.229s-29.623-3.682-29.623-8.229c0-2.267,3.3-4.32,8.64-5.805v2.514h13.166s12.166.3,21.613-3.991C656.649,637.74,663.067,640.484,663.067,643.648Z" transform="translate(-395.249 -307.957)" opacity="0.1"/>
    <rect id="Rectangle_1736" data-name="Rectangle 1736" width="12.604" height="12.627" transform="translate(229.375 284.455)" fill="#2f2e41"/>
    <path id="Path_1364" data-name="Path 1364" d="M660.178,549.171s1.043,3.651-.783,3.912a7.129,7.129,0,0,0-3.13,1.3l3.391,4.434h6.26l3.912-3.912s-5.216-3.912-4.173-6.26S660.178,549.171,660.178,549.171Z" transform="translate(-426.116 -255.786)" fill="#ffb9b9"/>
    <path id="Path_1365" data-name="Path 1365" d="M660.178,549.171s1.043,3.651-.783,3.912a7.129,7.129,0,0,0-3.13,1.3l3.391,4.434h6.26l3.912-3.912s-5.216-3.912-4.173-6.26S660.178,549.171,660.178,549.171Z" transform="translate(-426.116 -255.786)" opacity="0.1"/>
    <path id="Path_1366" data-name="Path 1366" d="M536.239,520.629l6,2.086,4.173.261-.261-3.651-8.607-2.546Z" transform="translate(-300.612 -181.861)" fill="#ffb9b9"/>
    <path id="Path_1367" data-name="Path 1367" d="M688.279,654.684s0,3.652.522,3.652,7.564-.782,9.65,0,5.216-2.087,3.651-3.652-4.117-3.912-5.71-3.391-8.113,1.826-8.113,1.826Z" transform="translate(-444.958 -316.699)" fill="#2f2e41"/>
    <path id="Path_1368" data-name="Path 1368" d="M639.166,651.4s-3.13,6.26-1.043,6.781a7.236,7.236,0,0,0,4.695-.522c.261-.261,3.912-1.3,4.434-.783s.522-2.087.522-2.087Z" transform="translate(-415.016 -316.805)" fill="#2f2e41"/>
    <path id="Path_1369" data-name="Path 1369" d="M644.239,630.48s-4.956,6.781-1.3,8.607,21.126,1.826,22.431,0,1.826-7.564,0-8.085S644.239,630.48,644.239,630.48Z" transform="translate(-417.48 -304.493)" fill="#2f2e41"/>
    <path id="Path_1370" data-name="Path 1370" d="M644.239,630.48s-4.956,6.781-1.3,8.607,21.126,1.826,22.431,0,1.826-7.564,0-8.085S644.239,630.48,644.239,630.48Z" transform="translate(-417.48 -304.493)" opacity="0.2"/>
    <circle id="Ellipse_357" data-name="Ellipse 357" cx="5.999" cy="5.999" r="5.999" transform="translate(230.15 283.213)" fill="#ffb9b9"/>
    <path id="Path_1371" data-name="Path 1371" d="M648.025,562.425l5.216-1.043s1.3,4.173,5.477,3.391,5.216-3.391,5.216-3.391,3.13,1.3,3.391,1.3,3.651,1.3,3.651,2.087-3.912,8.607-3.912,8.607l.522,14.084-19.3-.522,1.3-13.824Z" transform="translate(-421.266 -263.823)" fill="#6c63ff"/>
    <path id="Path_1372" data-name="Path 1372" d="M639.792,580.4s-1.565,13.824-.522,14.867,5.216,3.912,5.216,3.912v-3.13l-2.087-3.912,2.087-9.129Z" transform="translate(-415.902 -275.017)" fill="#ffb9b9"/>
    <path id="Path_1373" data-name="Path 1373" d="M699.014,579.448s-.913,14.215-.913,14.736-2.347,2.347-3.13,2.347-1.3-1.3-1.3-1.3l1.826-2.087-1.3-10.694Z" transform="translate(-448.129 -274.457)" fill="#ffb9b9"/>
    <path id="Path_1374" data-name="Path 1374" d="M683.292,623.8s11.737-6.52,12,0-6,9.129-6,9.129S673.12,637.776,672.468,636s-1.956-4.641-.913-4.9,2.347-.782,2.869-.261,7.042-3.912,7.042-3.912Z" transform="translate(-434.885 -298.855)" fill="#2f2e41"/>
    <path id="Path_1375" data-name="Path 1375" d="M703.507,626.042a14.835,14.835,0,0,0-3.13,1.826c-.782.782-4.173,2.087-4.173,2.087" transform="translate(-449.622 -301.881)" fill="none" stroke="#000" stroke-miterlimit="10" stroke-width="2" opacity="0.2"/>
    <path id="Path_1376" data-name="Path 1376" d="M643.479,564.439l-1.565-.522s-5.738,6-3.912,7.564,2.869,2.087,3.391,2.608,3.13.782,3.13.782Z" transform="translate(-415.156 -265.316)" fill="#6c63ff"/>
    <path id="Path_1377" data-name="Path 1377" d="M692.881,568.354l2.347.522a38.281,38.281,0,0,0,2.347,4.434c.522.522-.782.261-1.565,1.3s-1.565,2.869-3.13,2.869-3.651-2.608-3.651-2.608Z" transform="translate(-445.518 -267.927)" fill="#6c63ff"/>
    <path id="Path_1378" data-name="Path 1378" d="M629.658,628.286s-9.911-7.042-13.3-1.826,14.606,12.259,17.214,13.3,4.956,2.087,4.956,2.087,2.347-5.738,2.347-6.781-1.826-1.043-2.347-1.043-2.869-.522-3.391-1.3S629.658,628.286,629.658,628.286Z" transform="translate(-402.377 -300.994)" fill="#2f2e41"/>
    <path id="Path_1379" data-name="Path 1379" d="M635.98,629.212a15.093,15.093,0,0,0,4.956,2.608,4.848,4.848,0,0,1,3.13,1.826" transform="translate(-414.177 -303.747)" fill="none" stroke="#000" stroke-miterlimit="10" stroke-width="2" opacity="0.2"/>
    <path id="Path_1380" data-name="Path 1380" d="M644.92,603.361l.208,11.043a1.382,1.382,0,0,0,1.4,1.356l20.551-.231a1.382,1.382,0,0,0,1.365-1.3l.624-10.812a1.383,1.383,0,0,0-1.38-1.462H646.3a1.382,1.382,0,0,0-1.382,1.409Z" transform="translate(-419.438 -287.702)" fill="#575a89"/>
    <path id="Path_1381" data-name="Path 1381" d="M638.174,537.327a25.811,25.811,0,0,0,1.67-3.7,16.368,16.368,0,0,0,.211-4.85,15.224,15.224,0,0,1,.364-4.28,7.359,7.359,0,0,1,2.116-3.683c2.733-2.44,7.736-2.615,11.073-1.6,1.316.4,2.717,1.163,3.044,2.5.049.2.071.41.126.61.273.995,1.291,1.624,1.658,2.588.475,1.247-.257,2.6-.353,3.934a8.185,8.185,0,0,0,1.4,4.386,5.072,5.072,0,0,1,.868,2.6,3.282,3.282,0,0,1-.449,1.433,5.464,5.464,0,0,1-4.59,2.631,2.881,2.881,0,0,1-1.719-.406,2.667,2.667,0,0,1-.883-2.665,12.922,12.922,0,0,1,1.052-2.765c.119-.279.226-.563.325-.85a5.836,5.836,0,1,0-3.85.653,7.906,7.906,0,0,1-.383,4.4,16.589,16.589,0,0,1-1.846,3.219,4.44,4.44,0,0,1-1.176,1.316,4.171,4.171,0,0,1-1,.428,10.385,10.385,0,0,1-4.557.642,4.361,4.361,0,0,1-3.573-2.594A5.352,5.352,0,0,1,638.174,537.327Z" transform="translate(-415.07 -238.66)" fill="#2f2e41"/>
    <ellipse id="Ellipse_358" data-name="Ellipse 358" cx="6.366" cy="3.608" rx="6.366" ry="3.608" transform="translate(229.492 282.235)" fill="#2f2e41"/>
    <path id="Path_1382" data-name="Path 1382" d="M898.486,499.551a1.1,1.1,0,0,0-.5-.559,1.728,1.728,0,0,0-.455-.186,1.113,1.113,0,0,0,.292-.2,1.048,1.048,0,0,0,.28-.432,1.482,1.482,0,0,0,.063-.523,1.6,1.6,0,0,0-.237-.831,1.48,1.48,0,0,0-.674-.5,2.454,2.454,0,0,0-.815-.165v-1.186l-.717.464v.724h-.573v-.761l-.735-.427v1.188H892.85l.5.891a.782.782,0,0,1,.313.043.241.241,0,0,1,.117.111.927.927,0,0,1,.034.325v3.214a.921.921,0,0,1-.034.323c-.023.048-.036.091-.091.117s-.057.024-.211.024h0l-.627.891h1.559v1.188h.735v-1.187h.574v1.188h.717v-1.195a3.4,3.4,0,0,0,1.065-.191,1.751,1.751,0,0,0,.8-.584,1.856,1.856,0,0,0,.283-.95A2.155,2.155,0,0,0,898.486,499.551Zm-3.342-2.4h0v-.025h.5c.282,0,1.221-.1,1.237.7s-1.237.762-1.237.762h-.5v-.061h0Zm0,2.264h.573c.116,0,.517.018.663.025a.613.613,0,0,1,.175.032c.021.007.04.015.061.024a.883.883,0,0,1,.247.13.526.526,0,0,1,.128.124.83.83,0,0,1,.143.458.666.666,0,0,1-.089.365.846.846,0,0,1-.387.33,2.413,2.413,0,0,1-.941.18h-.573Z" transform="translate(-565.362 -224.732)" fill="#857aff" opacity="0.3"/>
    <circle id="Ellipse_359" data-name="Ellipse 359" cx="7.406" cy="7.406" r="7.406" transform="translate(34.125 292.902)" fill="#f0f0f7"/>
    <path id="Path_1383" data-name="Path 1383" d="M196.487,562.551a1.1,1.1,0,0,0-.5-.559,1.721,1.721,0,0,0-.455-.185,1.117,1.117,0,0,0,.292-.2,1.049,1.049,0,0,0,.28-.432,1.478,1.478,0,0,0,.063-.523,1.6,1.6,0,0,0-.237-.831,1.481,1.481,0,0,0-.674-.5,2.457,2.457,0,0,0-.815-.165v-1.186l-.717.464v.724h-.574v-.761l-.735-.427v1.188H190.85l.5.891a.781.781,0,0,1,.314.043.24.24,0,0,1,.117.111.922.922,0,0,1,.034.325v3.214a.924.924,0,0,1-.034.323c-.023.048-.036.091-.091.117s-.057.024-.211.024h0l-.627.891h1.559v1.188h.735v-1.187h.574v1.188h.717v-1.195a3.4,3.4,0,0,0,1.065-.191,1.751,1.751,0,0,0,.8-.584,1.855,1.855,0,0,0,.283-.95A2.16,2.16,0,0,0,196.487,562.551Zm-3.343-2.4h0v-.025h.5c.282,0,1.221-.1,1.237.7s-1.237.762-1.237.762h-.5v-.061h0Zm0,2.264h.574c.117,0,.517.018.663.025a.618.618,0,0,1,.175.032l.061.025a.879.879,0,0,1,.247.129.521.521,0,0,1,.128.124.792.792,0,0,1,.117.259.8.8,0,0,1,.026.2.666.666,0,0,1-.089.366.846.846,0,0,1-.387.33,2.416,2.416,0,0,1-.941.18h-.574Z" transform="translate(-152.188 -261.812)" fill="#8e3ddf" opacity="0.3"/>
  </g>
</svg>
