<svg xmlns="http://www.w3.org/2000/svg" xmlns:xlink="http://www.w3.org/1999/xlink" width="384" height="221.284" viewBox="0 0 384 221.284">
  <defs>
    <linearGradient id="linear-gradient" x1="50" x2="50" y2="100" gradientUnits="objectBoundingBox">
      <stop offset="0" stop-color="#f94f4f"/>
      <stop offset="1" stop-color="#8e3ddf"/>
    </linearGradient>
    <linearGradient id="linear-gradient-6" x1="50" y1="100" x2="50" gradientUnits="objectBoundingBox">
      <stop offset="0" stop-color="gray" stop-opacity="0.251"/>
      <stop offset="0.54" stop-color="gray" stop-opacity="0.122"/>
      <stop offset="1" stop-color="gray" stop-opacity="0.102"/>
    </linearGradient>
    <linearGradient id="linear-gradient-7" y1="100" y2="0" gradientUnits="objectBoundingBox">
      <stop offset="0" stop-color="gray" stop-opacity="0.251"/>
      <stop offset="0.54" stop-color="gray" stop-opacity="0.122"/>
      <stop offset="1" stop-color="gray" stop-opacity="0.102"/>
    </linearGradient>
  </defs>
  <g id="Group_7289" data-name="Group 7289" transform="translate(-15 -159.475)">
    <path id="Path_1389" data-name="Path 1389" d="M222.171,521.184c-23.217-8.022-49.762-14.812-71.454-3.284-2.749,1.461-5.458,3.3-6.939,6.038-3.912,7.2,2.306,16.539-.725,24.151s-14.438,11.443-13.5,19.574a11.348,11.348,0,0,0,2.753,5.708c8.5,10.381,24.074,11.431,37.24,8.855s26.042-7.917,39.446-7.245c12.88.664,24.73,6.843,36.532,12.043,19.9,8.791,43.133,15.1,63.013,6.263,9.109-4.049,16.64-10.944,25.358-15.758a62.412,62.412,0,0,1,38.52-7.068c8.855,1.248,17.308,4.387,25.974,6.553,19.683,4.915,40.227,4.754,60.509,4.56,3.776-.036,7.611-.081,11.23-1.159,5.357-1.61,9.777-5.317,14.032-8.944,5.591-4.762,11.48-9.994,13.283-17.115,2.129-8.453-2.278-17.437-8.815-23.181s-14.893-8.883-23.048-11.91c-2.013-.74-4.162-1.493-6.223-.934a8.486,8.486,0,0,0-3.5,2.242c-5.788,5.571-10.679,14.994-18.572,13.48-2.818-.539-5.124-2.5-7.354-4.311-11.906-9.66-27.922-17.119-42.292-11.782-10.51,3.9-17.928,13.931-28.578,17.469-7.575,2.52-15.807,1.429-23.776,1.92-11.592.708-22.875,4.806-34.483,4.557-29.6-.636-54.262-28.941-83.742-26.244-2.31.209-4.83.741-6.247,2.568" transform="translate(-111.882 -216.785)" fill="url(#linear-gradient)"/>
    <path id="Path_1390" data-name="Path 1390" d="M257.116,465.171s-24.6,14.849,20.761,37.719c0,0,9.994-18.556-1.055-33.686a14.893,14.893,0,0,0-19.32-4.234Z" transform="translate(-184.156 -187.696)" fill="url(#linear-gradient)"/>
    <path id="Path_1391" data-name="Path 1391" d="M267.73,467.52s21.059,16.1,20.472,38.017" transform="translate(-194.476 -190.355)" fill="none" stroke="#535461" stroke-miterlimit="10" stroke-width="1"/>
    <path id="Path_1392" data-name="Path 1392" d="M940.073,399.033c4.983,18.222-16.273,70.133-16.273,70.133s-44.727-33.863-49.714-52.085a34.213,34.213,0,1,1,65.983-18.053Z" transform="translate(-555.912 -133.927)" fill="#6c63ff"/>
    <path id="Path_1393" data-name="Path 1393" d="M940.073,399.033c4.983,18.222-16.273,70.133-16.273,70.133s-44.727-33.863-49.714-52.085a34.213,34.213,0,1,1,65.983-18.053Z" transform="translate(-555.912 -133.927)" fill="url(#linear-gradient)"/>
    <path id="Path_1394" data-name="Path 1394" d="M936.21,378.27s27.842,42.03,25.761,94.1" transform="translate(-593.886 -137.03)" fill="none" stroke="#534e73" stroke-miterlimit="10" stroke-width="1"/>
    <path id="Path_1395" data-name="Path 1395" d="M1024.655,517.783s-25.245-13.734-22.05,36.962c0,0,21.059-.753,28.534-17.932A14.893,14.893,0,0,0,1025.025,518Z" transform="translate(-633.389 -219.373)" fill="url(#linear-gradient)"/>
    <path id="Path_1396" data-name="Path 1396" d="M1025.484,520.52s-3.26,26.316-22.464,36.874" transform="translate(-633.804 -222.022)" fill="none" stroke="#534e73" stroke-miterlimit="10" stroke-width="1"/>
    <path id="Path_1397" data-name="Path 1397" d="M129.668,503.117s-24.609,14.845,20.753,37.7c0,0,9.994-18.556-1.055-33.686a14.893,14.893,0,0,0-19.32-4.234Z" transform="translate(-108.003 -210.359)" fill="url(#linear-gradient)"/>
    <path id="Path_1398" data-name="Path 1398" d="M140.26,505.49s21.059,16.1,20.472,38.017" transform="translate(-118.314 -213.042)" fill="none" stroke="#534e73" stroke-miterlimit="10" stroke-width="1"/>
    <path id="Path_1399" data-name="Path 1399" d="M500.72,360.9H474.858a8.621,8.621,0,0,0,.9-3.852V239.288a8.658,8.658,0,0,0-8.658-8.658H266.922a8.658,8.658,0,0,0-8.658,8.658V357.05a8.622,8.622,0,0,0,.9,3.852H232.39a2.29,2.29,0,0,0-2.29,2.3v1.848a12.808,12.808,0,0,0,12.808,12.808H490.2a12.808,12.808,0,0,0,12.808-12.808V363.2a2.29,2.29,0,0,0-2.29-2.306Zm-159.35,7.326-2.23-2.516H394.2l-2.455,2.52Z" transform="translate(-171.992 -48.816)" fill="url(#linear-gradient-6)"/>
    <rect id="Rectangle_1738" data-name="Rectangle 1738" width="212.574" height="132.019" rx="23.26" transform="translate(88.723 183.48)" fill="#413d5d"/>
    <rect id="Rectangle_1739" data-name="Rectangle 1739" width="203.175" height="107.853" transform="translate(93.198 202.724)" fill="#f0f0f7"/>
    <circle id="Ellipse_360" data-name="Ellipse 360" cx="1.791" cy="1.791" r="1.791" transform="translate(192.997 191.535)" fill="#fff"/>
    <path id="Path_1400" data-name="Path 1400" d="M402.737,551.08l-6.98,7.161H346.546l-6.307-7.161H240.018a2.238,2.238,0,0,0-2.238,2.238v1.8A12.518,12.518,0,0,0,250.3,567.639H491.989a12.518,12.518,0,0,0,12.518-12.518v-1.8a2.238,2.238,0,0,0-2.238-2.238Z" transform="translate(-176.581 -240.282)" fill="#413d5d"/>
    <path id="Path_1401" data-name="Path 1401" d="M258.77,124.19v91.74H410.476" transform="translate(-139.614 85.248)" fill="none" stroke="#535461" stroke-miterlimit="10" stroke-width="2"/>
    <rect id="Rectangle_1740" data-name="Rectangle 1740" width="15.662" height="24.167" transform="translate(132.58 273.434)" fill="#f94f4f" opacity="0.5"/>
    <rect id="Rectangle_1741" data-name="Rectangle 1741" width="15.662" height="45.649" transform="translate(159.432 251.951)" fill="#f94f4f" opacity="0.7"/>
    <rect id="Rectangle_1742" data-name="Rectangle 1742" width="15.662" height="32.668" transform="translate(186.283 264.928)" fill="#f94f4f" opacity="0.5"/>
    <rect id="Rectangle_1743" data-name="Rectangle 1743" width="15.662" height="52.809" transform="translate(213.134 244.791)" fill="#f94f4f" opacity="0.8"/>
    <rect id="Rectangle_1744" data-name="Rectangle 1744" width="15.662" height="71.603" transform="translate(239.986 225.994)" fill="#f94f4f"/>
    <path id="Path_1402" data-name="Path 1402" d="M311.02,186.036l27.3-24.613,26.851,23.269,26.4-28.192,26.851-11.19" transform="translate(-170.833 72.63)" fill="none" stroke="#535461" stroke-miterlimit="10" stroke-width="2"/>
    <circle id="Ellipse_361" data-name="Ellipse 361" cx="3.132" cy="3.132" r="3.132" transform="translate(137.056 255.534)" fill="#f94f4f"/>
    <circle id="Ellipse_362" data-name="Ellipse 362" cx="3.132" cy="3.132" r="3.132" transform="translate(190.759 253.743)" fill="#f94f4f"/>
    <circle id="Ellipse_363" data-name="Ellipse 363" cx="3.132" cy="3.132" r="3.132" transform="translate(218.057 225.998)" fill="#8e3ddf"/>
    <circle id="Ellipse_364" data-name="Ellipse 364" cx="3.132" cy="3.132" r="3.132" transform="translate(164.354 230.469)" fill="#8e3ddf"/>
    <circle id="Ellipse_365" data-name="Ellipse 365" cx="3.132" cy="3.132" r="3.132" transform="translate(244.462 214.808)" fill="#f94f4f"/>
    <path id="Path_1403" data-name="Path 1403" d="M854.213,330.374a15.7,15.7,0,0,0-6.038-.95,30.742,30.742,0,0,1-9.157-5.039,66.056,66.056,0,0,0-.2-7.736c-1.518-17.256,1.9-28.631,1.9-28.631s2.681-8.678,2.387-15.879c.173.326.27.519.27.519.233-6.211,2.351-12.639,3.937-16.644a1.331,1.331,0,0,0,.177-.064l1.771-4.2a3.637,3.637,0,0,0,.334-.777l.286-.664-.085-.036c.028-.109.056-.225.085-.342h0c1.131-4.786,2.013-16.137,2.013-16.137,3.035-11.947-4.17-19.32-4.17-19.32L835.492,203.95a1.546,1.546,0,0,1,.121.431l-.1-.089c-.173-.5-.362-1.087-.547-1.763a10.339,10.339,0,0,0,3.948-5.925,18.554,18.554,0,0,0,.181-4.428l-.2-5.076a16.114,16.114,0,0,0-.3-2.958c-.922-4.025-5.047-6.843-9.189-7.028a33.585,33.585,0,0,0-3.945.209,26.534,26.534,0,0,1-3.22.068.58.58,0,0,1-.346-.093.506.506,0,0,1-.149-.35,1.746,1.746,0,0,1,.427-1.308,1.609,1.609,0,0,1,.556-.318l-.294.068a1.609,1.609,0,0,1,.483-.262,9.374,9.374,0,0,0-3.051,1.107,3.941,3.941,0,0,0-.712.6,3.111,3.111,0,0,0-1.03,1.916,3.565,3.565,0,0,1-1.087-1.61,1.61,1.61,0,0,1,0-.781q-.109.133-.209.274v-.085a8.138,8.138,0,0,0-1.61,3.276,1.276,1.276,0,0,1-.29-.942q-.091.284-.169.568a1.31,1.31,0,0,1,0-.378,12.97,12.97,0,0,0-.632,4.5c0,1.521.676,3.892,2.306,4.428.085.028.169.048.258.068a10.236,10.236,0,0,0,6.9,15.633q.04.278.076.584h.064c.044.4.081.845.1,1.3a8.719,8.719,0,0,1-1.344,1.079,11.087,11.087,0,0,1-4.476,1.481,13.324,13.324,0,0,0-5.381,1.61c-1.952,1.091-4.106,2.681-4.782,4.613-1.127,3.22-7.334,8.231-11.5,8.855l-1.481-.085-.109-.032v.028l-.362-.02h-.117v.02l-.374-.02s-.036.173-.089.479c-2.093-.72-6.541-2.717-12.329-7.97-6.44-5.849-15.155-4.7-18.516-3.961a.576.576,0,0,0-.153,1.067,18.69,18.69,0,0,0,4.427,1.948s-2.012,2.105.129,3.22a1.554,1.554,0,0,0,1.61-.157c1.038-.761,3.925.962,8.107,1.86,0,0,11.8,12.212,17.662,14.088a8.418,8.418,0,0,0,.447.777l.362-.028v.028h.153l.044.4s9.113-.479,12.075-3.788a4.752,4.752,0,0,0,.576-.616l-3.168,39.848h.028l-.028.378h2.331a87.855,87.855,0,0,1-.632,14.675v25.978s-.121,2.286,4.629,5.635a177.553,177.553,0,0,1,14.378,11.146l.575.5c-.873,7.95-2.7,22.766-4.226,23.317l.942.165c-1.61,2.041-6.182,7.648-7.575,7.8-1.707.189-2.846,2.846,0,3.413a31.883,31.883,0,0,0,16.905-1.666,2.58,2.58,0,0,0,1.61-2.745l-.551-4.186a.588.588,0,0,1,.241.254c.378,1.139,0-1.517,0-1.517a118.629,118.629,0,0,0,3.667-15.3l5.635,4.87s.113-.141.31-.4c1.38,3.132,3.844,9.539,3.292,14.233-.757,6.44,6.44.757,5.688-3.035-.612-3.067,2.125-16.068,3.192-20.93a2.162,2.162,0,0,0-1.449-2.52Z" transform="translate(-490.113 -15.656)" fill="url(#linear-gradient-7)"/>
    <path id="Path_1404" data-name="Path 1404" d="M796.729,280.766s-5.37-.926-13.331-8.147c-6.3-5.712-14.8-4.589-18.073-3.868a.559.559,0,0,0-.149,1.039,18.3,18.3,0,0,0,4.339,1.9s-1.984,2.053.125,3.152a1.518,1.518,0,0,0,1.586-.153c1.014-.741,3.832.942,7.917,1.815,0,0,15.923,16.479,19.626,13.685Z" transform="translate(-491.52 -71.235)" fill="#fec3be"/>
    <path id="Path_1405" data-name="Path 1405" d="M912.11,232.012s1.481,6.3,0,10.739l6.666.926,5.925-2.962v-3.888a26.7,26.7,0,0,1-2.037-12.776Z" transform="translate(-579.487 -44.885)" fill="#fec3be"/>
    <path id="Path_1406" data-name="Path 1406" d="M959,566.383s4.83,9.443,4.073,15.738,6.3.741,5.555-2.962c-.6-2.995,2.073-15.7,3.115-20.423a2.109,2.109,0,0,0-1.4-2.459c-2.226-.733-5.953-1.63-7.825-.258C959.753,558.052,959,566.383,959,566.383Z" transform="translate(-607.503 -242.805)" fill="#413d5d"/>
    <path id="Path_1407" data-name="Path 1407" d="M899.161,607.766s-6.3,8.147-7.962,8.332-2.777,2.777,0,3.333a31.128,31.128,0,0,0,16.5-1.61,2.519,2.519,0,0,0,1.582-2.681l-1.062-7.929Z" transform="translate(-565.982 -273.819)" fill="#413d5d"/>
    <path id="Path_1408" data-name="Path 1408" d="M878.66,393.78l-6.038.805a88.354,88.354,0,0,1-.072,21.224v25.358s-.117,2.234,4.52,5.482a173.353,173.353,0,0,1,14.04,10.868l16.8,14.555s6.666-8.147,5.74-12.961c0,0-11.109-3.518-12.591-9.258-.849-3.284-5.156-6.038-8.682-7.768a10.8,10.8,0,0,1-5.776-12.252,9.454,9.454,0,0,1,.946-2.379c2.963-5.184,7.221-16.849,7.221-16.849l-8.147-15.529Z" transform="translate(-555.849 -146.296)" fill="#4d4981"/>
    <path id="Path_1409" data-name="Path 1409" d="M878.66,393.78l-6.038.805a88.354,88.354,0,0,1-.072,21.224v25.358s-.117,2.234,4.52,5.482a173.353,173.353,0,0,1,14.04,10.868l16.8,14.555s6.666-8.147,5.74-12.961c0,0-11.109-3.518-12.591-9.258-.849-3.284-5.156-6.038-8.682-7.768a10.8,10.8,0,0,1-5.776-12.252,9.454,9.454,0,0,1,.946-2.379c2.963-5.184,7.221-16.849,7.221-16.849l-8.147-15.529Z" transform="translate(-555.849 -146.296)" fill="#534e73"/>
    <path id="Path_1410" data-name="Path 1410" d="M901.039,480.914s10.924,1.852,11.294,2.962,0-1.481,0-1.481,6.3-19.071,4.83-35.916,1.852-27.958,1.852-27.958,3.888-12.591,1.667-19.812-25.552-4.073-25.552-4.073,8.147,19.071,7.962,28.143c0,0,.926,27.4,2.592,30.551C905.668,453.314,903.076,480.162,901.039,480.914Z" transform="translate(-569.341 -146.4)" fill="#534e73"/>
    <path id="Path_1411" data-name="Path 1411" d="M888.561,255.79s1.111,6.843,12.22,3.888l-7.39,56.283s-21.478.741-21.293-1.852l4.428-34.064Z" transform="translate(-555.579 -63.849)" fill="#fff"/>
    <path id="Path_1412" data-name="Path 1412" d="M871.531,254.87a9.024,9.024,0,0,1-5.349,2.54,13.013,13.013,0,0,0-5.257,1.562c-1.9,1.067-4.025,2.616-4.669,4.5-1.3,3.7-9.443,9.813-13.146,8.517l1.3,11.109s10.554-.555,12.405-4.629l-3.144,39.643h2.777s1.481-10.739,2.592-12.961,3.333-14.442,3.518-17.4,2.963-20,5.369-22.943l3.623-8.795Z" transform="translate(-538.26 -63.299)" opacity="0.1"/>
    <path id="Path_1413" data-name="Path 1413" d="M870.988,256.25a11.459,11.459,0,0,1-5.719,2.355,13.011,13.011,0,0,0-5.253,1.57c-1.9,1.067-4.025,2.616-4.669,4.5-1.3,3.7-9.443,9.813-13.146,8.517l1.3,11.109s10.554-.556,12.405-4.629L852.754,319.3h2.777s1.481-10.739,2.592-12.961,3.333-14.442,3.518-17.4,2.962-20,5.37-22.943l3.977-8.63Z" transform="translate(-537.716 -64.123)" opacity="0.1"/>
    <path id="Path_1414" data-name="Path 1414" d="M870.982,255.33a11.459,11.459,0,0,1-5.72,2.355,13.015,13.015,0,0,0-5.257,1.562c-1.9,1.067-4.025,2.616-4.669,4.5-1.3,3.7-9.443,9.813-13.146,8.517l1.3,11.109s10.554-.555,12.405-4.629l-3.144,39.643h2.777s1.481-10.739,2.592-12.961,3.333-14.442,3.518-17.4,2.963-20,5.37-22.943l3.981-8.61Z" transform="translate(-537.71 -63.574)" fill="#fd6f8d"/>
    <path id="Path_1415" data-name="Path 1415" d="M922.2,230.337c-.241-1.755.241-2.85.463-4.907l-10.554,7.962s.254,1.075.447,2.648a10.064,10.064,0,0,0,1.61.129C917.83,236.169,920.466,233.307,922.2,230.337Z" transform="translate(-579.487 -45.709)" opacity="0.1"/>
    <circle id="Ellipse_366" data-name="Ellipse 366" cx="9.998" cy="9.998" r="9.998" transform="translate(324.662 169.912)" fill="#fec3be"/>
    <path id="Path_1416" data-name="Path 1416" d="M890.047,189.588a12.656,12.656,0,0,1,.8-4.947,1.236,1.236,0,0,0,.209,1.61,7.921,7.921,0,0,1,2.512-4.452,1.361,1.361,0,0,0-.9,1.7,3.864,3.864,0,0,0,1.236,1.739,3.106,3.106,0,0,1,1.525-2.628,9.154,9.154,0,0,1,2.979-1.079,1.727,1.727,0,0,0-1.143,1.771.5.5,0,0,0,.149.342.568.568,0,0,0,.338.089,25.912,25.912,0,0,0,3.128-.068,32.8,32.8,0,0,1,3.852-.205c4.025.169,8.07,2.918,8.972,6.843a15.735,15.735,0,0,1,.294,2.89l.2,4.955a18.1,18.1,0,0,1-.177,4.331,9.177,9.177,0,0,1-4.713,6.231c-1.453-2.105-1.582-4.81-2.085-7.318a3.7,3.7,0,0,0-.628-1.61,1.413,1.413,0,0,0-1.55-.523.89.89,0,0,0-.326,1.417c-.4.475-1.155.121-1.61-.3a8.646,8.646,0,0,1-2.508-4.48c-.181-.861-.362-1.924-1.207-2.218a2.246,2.246,0,0,0-.894-.06c-1.763.121-4.52.849-6.227.29C890.707,193.392,890.047,191.074,890.047,189.588Z" transform="translate(-566.298 -19.479)" opacity="0.1"/>
    <path id="Path_1417" data-name="Path 1417" d="M890.507,189.128a12.653,12.653,0,0,1,.8-4.947,1.236,1.236,0,0,0,.209,1.61,7.923,7.923,0,0,1,2.512-4.452,1.361,1.361,0,0,0-.9,1.7,3.863,3.863,0,0,0,1.236,1.739,3.106,3.106,0,0,1,1.526-2.628,9.151,9.151,0,0,1,2.979-1.079,1.727,1.727,0,0,0-1.143,1.771.5.5,0,0,0,.149.342.567.567,0,0,0,.338.089,25.917,25.917,0,0,0,3.127-.068,32.8,32.8,0,0,1,3.852-.205c4.025.169,8.071,2.918,8.972,6.843a15.757,15.757,0,0,1,.294,2.89l.2,4.955a18.128,18.128,0,0,1-.177,4.331,9.177,9.177,0,0,1-4.713,6.231c-1.453-2.105-1.582-4.81-2.085-7.318a3.707,3.707,0,0,0-.628-1.61,1.413,1.413,0,0,0-1.55-.523.89.89,0,0,0-.326,1.417c-.4.475-1.155.121-1.61-.3a8.646,8.646,0,0,1-2.508-4.48c-.181-.861-.362-1.924-1.208-2.218a2.246,2.246,0,0,0-.894-.06c-1.763.121-4.52.849-6.227.29C891.167,192.928,890.507,190.614,890.507,189.128Z" transform="translate(-566.573 -19.204)" fill="#784f69"/>
    <path id="Path_1418" data-name="Path 1418" d="M840.414,297.42s-1.481,6.843,1.3,11.109l1.574-.129-.857-10.868Z" transform="translate(-536.413 -88.722)" opacity="0.1"/>
    <path id="Path_1419" data-name="Path 1419" d="M841.414,297.42s-1.481,6.843,1.3,11.109l1.574-.129-.857-10.868Z" transform="translate(-537.011 -88.722)" fill="#fd6f8d"/>
    <path id="Path_1420" data-name="Path 1420" d="M921.752,251l11.942,10.276s7.036,7.221,4.073,18.886c0,0-1.3,17.034-2.777,17.775,0,0-5.184,10.369-5.555,20.182,0,0-6.943-13.979-10.091-5.462s-10.465,9.721-10.465,9.721L912.953,272S923.234,254.132,921.752,251Z" transform="translate(-577.557 -60.987)" opacity="0.1"/>
    <path id="Path_1421" data-name="Path 1421" d="M922.672,251l11.943,10.276s7.036,7.221,4.073,18.886c0,0-1.3,17.034-2.777,17.775,0,0-5.184,10.369-5.555,20.182,0,0-7.313-14.72-10.465-6.2S909.8,322.381,909.8,322.381l4.073-50.358S924.154,254.132,922.672,251Z" transform="translate(-578.107 -60.987)" fill="#fd6f8d"/>
    <path id="Path_1422" data-name="Path 1422" d="M943.394,358.289s2.963-2.037,7.777,3.518l-11.85,21.478-3.981-6.009S943.765,360.7,943.394,358.289Z" transform="translate(-593.366 -124.873)" fill="#fec3be"/>
    <path id="Path_1423" data-name="Path 1423" d="M948.22,357.148s6.553,7.358,9.109,6.179l2.367-5.51L950.812,354Z" transform="translate(-601.062 -122.529)" opacity="0.1"/>
    <path id="Path_1424" data-name="Path 1424" d="M948.22,356.228s6.553,7.358,9.109,6.179l2.367-5.51-8.884-3.816Z" transform="translate(-601.062 -121.979)" fill="#fd6f8d"/>
    <path id="Path_1425" data-name="Path 1425" d="M934.631,402.51s3.12,6.392,4.782,6.762L937,412.049l-3.518-6.666Z" transform="translate(-592.255 -151.512)" opacity="0.1"/>
    <path id="Path_1426" data-name="Path 1426" d="M934.159,403s3.12,6.392,4.782,6.762l-2.415,2.777L933,405.862Z" transform="translate(-591.968 -151.805)" fill="#4d4981"/>
    <path id="Path_1427" data-name="Path 1427" d="M948.871,304.78s.37,13.331-1.111,18.33" transform="translate(-600.787 -93.12)" opacity="0.1"/>
    <path id="Path_1428" data-name="Path 1428" d="M876,307.372s2.222-.741,2.222-2.592" transform="translate(-557.911 -93.12)" opacity="0.1"/>
    <path id="Path_1429" data-name="Path 1429" d="M196.812,316.76s-10.554,21.832-3.623,47.669,4.729,56.754-2.182,64.4" transform="translate(-148.53 -100.278)" fill="none" stroke="#535461" stroke-miterlimit="10" stroke-width="2"/>
    <circle id="Ellipse_367" data-name="Ellipse 367" cx="2.91" cy="2.91" r="2.91" transform="translate(45.372 213.576)" fill="#ff6a7e"/>
    <path id="Path_1430" data-name="Path 1430" d="M194.79,348.663s10.94,1.972,13.85-2.013" transform="translate(-150.895 -118.136)" fill="none" stroke="#535461" stroke-miterlimit="10" stroke-width="2"/>
    <path id="Path_1431" data-name="Path 1431" d="M182.957,350.109s-6.581-7.281-6.219-11.649" transform="translate(-140.101 -113.243)" fill="none" stroke="#535461" stroke-miterlimit="10" stroke-width="2"/>
    <path id="Path_1432" data-name="Path 1432" d="M190.82,385.6s5.985,1.578,11.447-10.063" transform="translate(-148.523 -135.398)" fill="none" stroke="#535461" stroke-miterlimit="10" stroke-width="2"/>
    <path id="Path_1433" data-name="Path 1433" d="M175.15,401.236s-14.893-9.584-13.078-15.766" transform="translate(-131.255 -141.332)" fill="none" stroke="#535461" stroke-miterlimit="10" stroke-width="2"/>
    <path id="Path_1434" data-name="Path 1434" d="M200.57,424.627s10.433-9.258,9.342-18.366" transform="translate(-154.349 -153.753)" fill="none" stroke="#535461" stroke-miterlimit="10" stroke-width="2"/>
    <path id="Path_1435" data-name="Path 1435" d="M184.257,453.761s-13.283-3.711-12.88-9.531" transform="translate(-136.9 -176.44)" fill="none" stroke="#535461" stroke-miterlimit="10" stroke-width="2"/>
    <path id="Path_1436" data-name="Path 1436" d="M205.69,468.478s8.368-7.752,9.459-12.478" transform="translate(-157.408 -183.472)" fill="none" stroke="#535461" stroke-miterlimit="10" stroke-width="2"/>
    <path id="Path_1437" data-name="Path 1437" d="M193.852,497.314s-8.586-10.023-8.952-15.114" transform="translate(-144.986 -199.126)" fill="none" stroke="#535461" stroke-miterlimit="10" stroke-width="2"/>
    <path id="Path_1438" data-name="Path 1438" d="M207.14,516.956s9.608-10.675,10.332-15.766" transform="translate(-158.274 -210.473)" fill="none" stroke="#535461" stroke-miterlimit="10" stroke-width="2"/>
    <circle id="Ellipse_368" data-name="Ellipse 368" cx="2.91" cy="2.91" r="2.91" transform="translate(33.728 223.035)" fill="#ff6a7e"/>
    <circle id="Ellipse_369" data-name="Ellipse 369" cx="2.91" cy="2.91" r="2.91" transform="translate(30.455 264.88)" fill="#ff6a7e"/>
    <circle id="Ellipse_370" data-name="Ellipse 370" cx="2.91" cy="2.91" r="2.91" transform="translate(27.907 241.229)" fill="#ff6a7e"/>
    <circle id="Ellipse_371" data-name="Ellipse 371" cx="2.91" cy="2.91" r="2.91" transform="translate(54.835 225.583)" fill="#ff6a7e"/>
    <circle id="Ellipse_372" data-name="Ellipse 372" cx="2.91" cy="2.91" r="2.91" transform="translate(54.835 270.338)" fill="#ff6a7e"/>
    <circle id="Ellipse_373" data-name="Ellipse 373" cx="2.91" cy="2.91" r="2.91" transform="translate(50.106 237.228)" fill="#ff6a7e"/>
    <circle id="Ellipse_374" data-name="Ellipse 374" cx="2.91" cy="2.91" r="2.91" transform="translate(55.926 289.627)" fill="#ff6a7e"/>
    <circle id="Ellipse_375" data-name="Ellipse 375" cx="2.91" cy="2.91" r="2.91" transform="translate(36.276 281.983)" fill="#ff6a7e"/>
    <circle id="Ellipse_376" data-name="Ellipse 376" cx="2.91" cy="2.91" r="2.91" transform="translate(53.016 249.597)" fill="#ff6a7e"/>
  </g>
</svg>
