<svg xmlns="http://www.w3.org/2000/svg" width="28" height="28" viewBox="0 0 28 28">
  <g id="Group_7289" data-name="Group 7289" transform="translate(-117 -290)">
    <rect id="Rectangle_2217" data-name="Rectangle 2217" width="28" height="28" rx="14" transform="translate(117 290)" fill="#8f90a2"/>
    <path id="iostoken-seeklogo.com" d="M8.815,15.948,2.658,12.437l.025-1.708,6.128,3.508,2.956-1.7L9.785,11.388l-.742.428-1.39-.8.745-.431-.973-.563-.588.342-1.394-.8.592-.342L2.894,7.41,8.812,3.994l5.583,3.184-1.5.87L8.812,5.706,5.856,7.41l1.654.955.845-.492,1.394.8L8.9,9.164l.973.563.692-.4,1.394.8-.7.406,3.465,2L8.815,15.948Z" transform="translate(122.277 294.29)" fill="#534e73"/>
  </g>
</svg>
