<svg xmlns="http://www.w3.org/2000/svg" width="36" height="36" viewBox="0 0 36 36">
  <g id="Group_17" data-name="Group 17" transform="translate(-686.176 -371.023)">
    <rect id="Rectangle_2158" data-name="Rectangle 2158" width="36" height="36" rx="8" transform="translate(686.176 371.023)" fill="#1ba27a"/>
    <path id="Path_513" data-name="Path 513" d="M405.119,497.518V495.07h5.6v-3.73H395.473v3.73h5.6v2.446c-4.55.209-7.972,1.11-7.972,2.19s3.423,1.981,7.972,2.191v7.842h4.048V501.9c4.542-.21,7.957-1.11,7.957-2.189s-3.415-1.979-7.957-2.189m0,3.713v0c-.114.007-.7.042-2.008.042-1.045,0-1.78-.03-2.039-.043v0c-4.02-.178-7.021-.878-7.021-1.716s3-1.537,7.021-1.715v2.734c.263.018,1.016.063,2.056.063,1.248,0,1.876-.052,1.991-.063V497.8c4.012.179,7.006.879,7.006,1.714s-3,1.536-7.006,1.715" transform="translate(301.565 -111.606)" fill="#fff"/>
  </g>
</svg>
