<svg xmlns="http://www.w3.org/2000/svg" xmlns:xlink="http://www.w3.org/1999/xlink" width="36" height="36" viewBox="0 0 36 36">
  <defs>
    <linearGradient id="linear-gradient" x1="0" y1="0" x2="40" y2="40" gradientUnits="objectBoundingBox">
      <stop offset="0" stop-color="#ffcda5"/>
      <stop offset="1" stop-color="#ee4d5f"/>
    </linearGradient>
  </defs>
  <g id="Group_7298" data-name="Group 7298" transform="translate(-39 -294)">
    <rect id="Rectangle_2126" data-name="Rectangle 2126" width="36" height="36" rx="18" transform="translate(39 294)" fill="url(#linear-gradient)"/>
    <path id="Path_1511" data-name="Path 1511" d="M158.279,107.071c-.729-.509-1.509-1.053-2.272-1.592a.632.632,0,0,0-.055-.038,1.026,1.026,0,0,0-.3-.168l-.008,0c-2.041-.493-4.115-1-6.122-1.486l-5.46-1.326-.143-.038a1.4,1.4,0,0,0-.557-.072.388.388,0,0,0-.156.059l-.051.042a.618.618,0,0,0-.143.227l-.013.034v.194l.008.029c1.151,3.221,2.332,6.489,3.47,9.651.877,2.434,1.788,4.956,2.677,7.432a.447.447,0,0,0,.4.295h.042a.475.475,0,0,0,.422-.232l3.339-4.864q1.221-1.775,2.441-3.554c.333-.484.666-.973,1-1.457.548-.8,1.113-1.625,1.674-2.43l.03-.042v-.051a.636.636,0,0,0-.228-.611m-3.913,1.773c-.784.408-1.585.83-2.391,1.246l1.408-1.507c.586-.632,1.2-1.284,1.8-1.924l.013-.013a1.928,1.928,0,0,1,.181-.2c.046-.046.1-.093.143-.147.312.215.628.434.932.648q.329.234.67.467c-.928.472-1.855.956-2.753,1.427m-2.015-.2c-.6.653-1.227,1.322-1.847,1.983-1.2-1.457-2.429-2.935-3.617-4.362l-1.623-1.95,0,0c-.122-.139-.24-.291-.358-.434-.076-.1-.156-.189-.236-.286.489.126.982.244,1.467.358.426.1.869.206,1.3.316l7.34,1.781c-.814.867-1.632,1.747-2.424,2.6m-2.121,8.207c.046-.442.1-.9.139-1.343.038-.358.076-.724.114-1.074.059-.56.122-1.141.173-1.71l.013-.1c.042-.362.084-.737.11-1.112a1.276,1.276,0,0,1,.152-.072,1.961,1.961,0,0,0,.19-.093q1.461-.764,2.926-1.524c.974-.505,1.973-1.027,2.964-1.545-.9,1.305-1.809,2.623-2.686,3.908-.755,1.1-1.53,2.232-2.3,3.348-.3.446-.62.9-.919,1.339-.337.488-.683.99-1.02,1.491.042-.505.093-1.015.148-1.512m-5.877-12.266c-.055-.152-.114-.307-.164-.455,1.138,1.373,2.285,2.754,3.4,4.093.578.695,1.155,1.385,1.733,2.084.114.131.228.269.337.4.143.173.287.354.443.526-.051.434-.093.872-.139,1.293-.03.295-.059.59-.093.888v0c-.013.19-.038.379-.059.564-.03.257-.1.838-.1.838l0,.029c-.076.851-.169,1.71-.257,2.543-.038.345-.072.7-.11,1.053-.021-.063-.046-.126-.067-.185-.063-.168-.126-.345-.185-.518l-.451-1.251q-2.144-5.956-4.288-11.912" transform="translate(-93.372 200.827)" fill="#fff"/>
  </g>
</svg>
