<svg xmlns="http://www.w3.org/2000/svg" xmlns:xlink="http://www.w3.org/1999/xlink" width="36" height="36" viewBox="0 0 36 36">
  <defs>
    <linearGradient id="linear-gradient" x1="0" y1="0" x2="30" y2="30" gradientUnits="objectBoundingBox">
      <stop offset="0" stop-color="#ffcf1b"/>
      <stop offset="1" stop-color="#ff881b"/>
    </linearGradient>
  </defs>
  <g id="Group_1970" data-name="Group 1970" transform="translate(-76.176 -74.991)">
    <rect id="Rectangle_2162" data-name="Rectangle 2162" width="36" height="36" rx="8" transform="translate(76.176 74.991)" fill="url(#linear-gradient)"/>
    <g id="binance-coin-seeklogo.com" transform="translate(86.285 77.563)">
      <path id="Path_395" data-name="Path 395" d="M4.666,6.4,7.625,3.444,10.586,6.4l1.722-1.722L7.625,0,2.944,4.681,4.666,6.4M.006,7.619,1.728,5.9,3.45,7.619,1.728,9.341Zm4.66,1.216,2.959,2.959,2.961-2.961,1.723,1.721h0L7.625,15.239,2.944,10.557l0,0,1.724-1.72M11.8,7.62,13.523,5.9,15.245,7.62,13.523,9.342Z" transform="translate(-0.006)" fill="#fff"/>
      <path id="Path_396" data-name="Path 396" d="M774.318,772.434h0l-1.884-1.884-1.392,1.392h0l-.16.16-.33.33,0,0,0,0,1.882,1.882,1.884-1.884h0" transform="translate(-764.816 -764.816)" fill="#fff"/>
    </g>
    <text id="Token" transform="translate(85 103)" fill="#fff" font-size="6" font-family="Poppins-Regular, Poppins"><tspan x="0" y="0">Token</tspan></text>
  </g>
</svg>
