<svg xmlns="http://www.w3.org/2000/svg" xmlns:xlink="http://www.w3.org/1999/xlink" width="36" height="36" viewBox="0 0 36 36">
  <defs>
    <linearGradient id="linear-gradient" x1="0" y1="0" x2="40" y2="40" gradientUnits="objectBoundingBox">
      <stop offset="0" stop-color="#f00b51"/>
      <stop offset="1" stop-color="#730062"/>
    </linearGradient>
  </defs>
  <g id="Group_7295" data-name="Group 7295" transform="translate(-27 -656)">
    <rect id="Rectangle_2" data-name="Rectangle 2" width="36" height="36" rx="18" transform="translate(27 656)" fill="url(#linear-gradient)"/>
    <g id="monero" transform="translate(35.779 665.167)">
      <path id="Path_500" data-name="Path 500" d="M8.985,0A8.991,8.991,0,0,0,.458,11.823H3.145V4.263l5.84,5.84,5.84-5.84v7.56h2.687A8.991,8.991,0,0,0,8.985,0" fill="#fff"/>
      <path id="Path_501" data-name="Path 501" d="M24.958,129.3l-2.549-2.549v4.757H18.623a8.987,8.987,0,0,0,15.355,0H30.192V126.75L27.643,129.3,26.3,130.642,24.958,129.3Z" transform="translate(-17.316 -117.853)" fill="#fff"/>
    </g>
  </g>
</svg>
