<svg xmlns="http://www.w3.org/2000/svg" xmlns:xlink="http://www.w3.org/1999/xlink" width="28" height="28" viewBox="0 0 28 28">
  <defs>
    <linearGradient id="linear-gradient" x1="0" y1="0" x2="30" y2="30" gradientUnits="objectBoundingBox">
      <stop offset="0" stop-color="#f00b51"/>
      <stop offset="1" stop-color="#730062"/>
    </linearGradient>
  </defs>
  <g id="Group_7300" data-name="Group 7300" transform="translate(-15 -409.5)">
    <rect id="Rectangle_1529" data-name="Rectangle 1529" width="28" height="28" rx="8" transform="translate(15 409.5)" fill="url(#linear-gradient)"/>
    <g id="monero" transform="translate(22 416.047)">
      <path id="Path_500" data-name="Path 500" d="M7.5,0A7.505,7.505,0,0,0,.382,9.869H2.625V3.559L7.5,8.434l4.875-4.875v6.31h2.243A7.5,7.5,0,0,0,7.5,0" fill="#fff"/>
      <path id="Path_501" data-name="Path 501" d="M23.911,128.878l-2.128-2.128v3.971h-3.16a7.5,7.5,0,0,0,12.817,0H28.28V126.75l-2.128,2.128L25.032,130l-1.121-1.121Z" transform="translate(-17.532 -119.323)" fill="#fff"/>
    </g>
  </g>
</svg>
