<svg xmlns="http://www.w3.org/2000/svg" xmlns:xlink="http://www.w3.org/1999/xlink" width="36" height="36" viewBox="0 0 36 36">
  <defs>
    <linearGradient id="linear-gradient" x1="1.6" y1="1.6" x2="100" y2="100" gradientUnits="objectBoundingBox">
      <stop offset="0" stop-color="#fd65a7"/>
      <stop offset="1" stop-color="#962a9f"/>
    </linearGradient>
  </defs>
  <g id="Group_7297" data-name="Group 7297" transform="translate(-27 -840)">
    <rect id="Rectangle_2" data-name="Rectangle 2" width="36" height="36" rx="18" transform="translate(27 840)" fill="url(#linear-gradient)"/>
    <g id="Group_1967" data-name="Group 1967" transform="translate(35.779 849.167)">
      <circle id="Ellipse_47" data-name="Ellipse 47" cx="1.087" cy="1.087" r="1.087" transform="translate(12.544)" fill="#fff"/>
      <circle id="Ellipse_48" data-name="Ellipse 48" cx="0.92" cy="0.92" r="0.92" transform="translate(13.015 3.031)" fill="#fff"/>
      <circle id="Ellipse_49" data-name="Ellipse 49" cx="0.778" cy="0.778" r="0.778" transform="translate(12.871 5.586)" fill="#fff"/>
      <circle id="Ellipse_50" data-name="Ellipse 50" cx="0.665" cy="0.665" r="0.665" transform="translate(12.274 7.653)" fill="#fff"/>
      <circle id="Ellipse_51" data-name="Ellipse 51" cx="0.571" cy="0.571" r="0.571" transform="translate(11.409 9.221)" fill="#fff"/>
      <circle id="Ellipse_52" data-name="Ellipse 52" cx="0.49" cy="0.49" r="0.49" transform="translate(10.419 10.349)" fill="#fff"/>
      <circle id="Ellipse_53" data-name="Ellipse 53" cx="0.924" cy="0.924" r="0.924" transform="translate(15.438 3.365)" fill="#fff"/>
      <circle id="Ellipse_54" data-name="Ellipse 54" cx="0.782" cy="0.782" r="0.782" transform="translate(15.276 5.937)" fill="#fff"/>
      <circle id="Ellipse_55" data-name="Ellipse 55" cx="0.661" cy="0.661" r="0.661" transform="translate(14.693 7.999)" fill="#fff"/>
      <circle id="Ellipse_56" data-name="Ellipse 56" cx="0.565" cy="0.565" r="0.565" transform="translate(13.823 9.574)" fill="#fff"/>
      <circle id="Ellipse_57" data-name="Ellipse 57" cx="0.485" cy="0.485" r="0.485" transform="translate(12.824 10.689)" fill="#fff"/>
      <circle id="Ellipse_58" data-name="Ellipse 58" cx="0.417" cy="0.417" r="0.417" transform="translate(11.803 11.416)" fill="#fff"/>
      <circle id="Ellipse_59" data-name="Ellipse 59" cx="0.787" cy="0.787" r="0.787" transform="translate(17.19 6.643)" fill="#fff"/>
      <circle id="Ellipse_60" data-name="Ellipse 60" cx="0.669" cy="0.669" r="0.669" transform="translate(16.593 8.707)" fill="#fff"/>
      <circle id="Ellipse_61" data-name="Ellipse 61" cx="0.578" cy="0.578" r="0.578" transform="translate(15.736 10.276)" fill="#fff"/>
      <circle id="Ellipse_62" data-name="Ellipse 62" cx="0.502" cy="0.502" r="0.502" transform="translate(14.733 11.401)" fill="#fff"/>
      <circle id="Ellipse_63" data-name="Ellipse 63" cx="0.429" cy="0.429" r="0.429" transform="translate(13.717 12.133)" fill="#fff"/>
      <circle id="Ellipse_64" data-name="Ellipse 64" cx="0.364" cy="0.364" r="0.364" transform="translate(12.754 12.542)" fill="#fff"/>
      <circle id="Ellipse_65" data-name="Ellipse 65" cx="1.087" cy="1.087" r="1.087" transform="translate(13.785 15.193)" fill="#fff"/>
      <circle id="Ellipse_66" data-name="Ellipse 66" cx="0.92" cy="0.92" r="0.92" transform="translate(11.318 14.192)" fill="#fff"/>
      <circle id="Ellipse_67" data-name="Ellipse 67" cx="0.778" cy="0.778" r="0.778" transform="translate(9.512 12.882)" fill="#fff"/>
      <circle id="Ellipse_68" data-name="Ellipse 68" cx="0.665" cy="0.665" r="0.665" transform="translate(8.287 11.404)" fill="#fff"/>
      <circle id="Ellipse_69" data-name="Ellipse 69" cx="0.571" cy="0.571" r="0.571" transform="translate(7.582 9.931)" fill="#fff"/>
      <circle id="Ellipse_70" data-name="Ellipse 70" cx="0.49" cy="0.49" r="0.49" transform="translate(7.29 8.561)" fill="#fff"/>
      <circle id="Ellipse_71" data-name="Ellipse 71" cx="0.924" cy="0.924" r="0.924" transform="translate(9.81 16.123)" fill="#fff"/>
      <circle id="Ellipse_72" data-name="Ellipse 72" cx="0.782" cy="0.782" r="0.782" transform="translate(7.998 14.788)" fill="#fff"/>
      <circle id="Ellipse_73" data-name="Ellipse 73" cx="0.661" cy="0.661" r="0.661" transform="translate(6.787 13.33)" fill="#fff"/>
      <circle id="Ellipse_74" data-name="Ellipse 74" cx="0.565" cy="0.565" r="0.565" transform="translate(6.085 11.85)" fill="#fff"/>
      <circle id="Ellipse_75" data-name="Ellipse 75" cx="0.485" cy="0.485" r="0.485" transform="translate(5.806 10.478)" fill="#fff"/>
      <circle id="Ellipse_76" data-name="Ellipse 76" cx="0.417" cy="0.417" r="0.417" transform="translate(5.848 9.274)" fill="#fff"/>
      <circle id="Ellipse_77" data-name="Ellipse 77" cx="0.787" cy="0.787" r="0.787" transform="translate(6.42 16.091)" fill="#fff"/>
      <circle id="Ellipse_78" data-name="Ellipse 78" cx="0.669" cy="0.669" r="0.669" transform="translate(5.207 14.618)" fill="#fff"/>
      <circle id="Ellipse_79" data-name="Ellipse 79" cx="0.578" cy="0.578" r="0.578" transform="translate(4.491 13.149)" fill="#fff"/>
      <circle id="Ellipse_80" data-name="Ellipse 80" cx="0.502" cy="0.502" r="0.502" transform="translate(4.197 11.767)" fill="#fff"/>
      <circle id="Ellipse_81" data-name="Ellipse 81" cx="0.429" cy="0.429" r="0.429" transform="translate(4.243 10.567)" fill="#fff"/>
      <circle id="Ellipse_82" data-name="Ellipse 82" cx="0.364" cy="0.364" r="0.364" transform="translate(4.523 9.57)" fill="#fff"/>
      <circle id="Ellipse_83" data-name="Ellipse 83" cx="1.087" cy="1.087" r="1.087" transform="translate(0 8.674)" fill="#fff"/>
      <circle id="Ellipse_84" data-name="Ellipse 84" cx="0.92" cy="0.92" r="0.92" transform="translate(2.497 7.146)" fill="#fff"/>
      <circle id="Ellipse_85" data-name="Ellipse 85" cx="0.778" cy="0.778" r="0.778" transform="translate(4.871 6.33)" fill="#fff"/>
      <circle id="Ellipse_86" data-name="Ellipse 86" cx="0.665" cy="0.665" r="0.665" transform="translate(7.031 6.083)" fill="#fff"/>
      <circle id="Ellipse_87" data-name="Ellipse 87" cx="0.571" cy="0.571" r="0.571" transform="translate(8.882 6.271)" fill="#fff"/>
      <circle id="Ellipse_88" data-name="Ellipse 88" cx="0.49" cy="0.49" r="0.49" transform="translate(10.404 6.756)" fill="#fff"/>
      <path id="Path_412" data-name="Path 412" d="M453.622,158.392a.924.924,0,1,1-.617,1.151A.924.924,0,0,1,453.622,158.392Z" transform="translate(-451.393 -153.48)" fill="#fff"/>
      <circle id="Ellipse_89" data-name="Ellipse 89" cx="0.782" cy="0.782" r="0.782" transform="translate(3.971 4.062)" fill="#fff"/>
      <circle id="Ellipse_90" data-name="Ellipse 90" cx="0.661" cy="0.661" r="0.661" transform="translate(6.125 3.823)" fill="#fff"/>
      <circle id="Ellipse_91" data-name="Ellipse 91" cx="0.565" cy="0.565" r="0.565" transform="translate(7.985 4.017)" fill="#fff"/>
      <circle id="Ellipse_92" data-name="Ellipse 92" cx="0.485" cy="0.485" r="0.485" transform="translate(9.501 4.515)" fill="#fff"/>
      <circle id="Ellipse_93" data-name="Ellipse 93" cx="0.417" cy="0.417" r="0.417" transform="translate(10.684 5.198)" fill="#fff"/>
      <circle id="Ellipse_94" data-name="Ellipse 94" cx="0.787" cy="0.787" r="0.787" transform="translate(3.624 2.041)" fill="#fff"/>
      <path id="Path_413" data-name="Path 413" d="M484.084,136.145a.669.669,0,1,1-.619.716A.669.669,0,0,1,484.084,136.145Z" transform="translate(-477.678 -134.339)" fill="#fff"/>
      <circle id="Ellipse_95" data-name="Ellipse 95" cx="0.578" cy="0.578" r="0.578" transform="translate(7.629 1.978)" fill="#fff"/>
      <circle id="Ellipse_96" data-name="Ellipse 96" cx="0.502" cy="0.502" r="0.502" transform="translate(9.153 2.465)" fill="#fff"/>
      <circle id="Ellipse_97" data-name="Ellipse 97" cx="0.429" cy="0.429" r="0.429" transform="translate(10.341 3.153)" fill="#fff"/>
      <path id="Path_414" data-name="Path 414" d="M523.139,151.583a.364.364,0,1,1-.336.389A.364.364,0,0,1,523.139,151.583Z" transform="translate(-511.583 -147.645)" fill="#fff"/>
    </g>
  </g>
</svg>
