<svg xmlns="http://www.w3.org/2000/svg" xmlns:xlink="http://www.w3.org/1999/xlink" width="28" height="28" viewBox="0 0 28 28">
  <defs>
    <linearGradient id="linear-gradient" x1="0" y1="0" x2="30" y2="30" gradientUnits="objectBoundingBox">
      <stop offset="0" stop-color="#ff6cab"/>
      <stop offset="1" stop-color="#7366ff"/>
    </linearGradient>
  </defs>
  <g id="Group_1980" data-name="Group 1980" transform="translate(-36 -193.5)">
    <rect id="Rectangle_1525" data-name="Rectangle 1525" width="28" height="28" rx="8" transform="translate(36 193.5)" fill="url(#linear-gradient)"/>
    <path id="symbol" d="M11.546,6.2c.236-1.576-.964-2.423-2.605-2.989l.532-2.135L8.173.757,7.655,2.836c-.342-.085-.693-.165-1.041-.245L7.136.5,5.837.174,5.3,2.309c-.283-.064-.56-.128-.83-.2V2.107L2.683,1.659,2.338,3.047s.964.221.944.235a.692.692,0,0,1,.606.756L3.281,6.47a1.076,1.076,0,0,1,.135.043L3.279,6.48l-.85,3.407a.473.473,0,0,1-.6.309c.013.019-.945-.236-.945-.236L.243,11.448l1.691.422c.315.079.623.161.927.239l-.538,2.16,1.3.324.533-2.137c.355.1.7.185,1.036.269L4.659,14.85l1.3.324L6.5,13.019c2.216.419,3.883.25,4.584-1.754A2.28,2.28,0,0,0,9.886,8.113,2.073,2.073,0,0,0,11.546,6.2ZM8.576,10.368c-.4,1.614-3.119.741-4,.523L5.29,8.03C6.171,8.25,9,8.685,8.576,10.368Zm.4-4.187c-.366,1.468-2.628.722-3.362.539l.647-2.595C7,4.309,9.36,4.65,8.978,6.181Z" transform="translate(43.891 199.872)" fill="#fff"/>
  </g>
</svg>
