<svg xmlns="http://www.w3.org/2000/svg" xmlns:xlink="http://www.w3.org/1999/xlink" width="28" height="28" viewBox="0 0 28 28">
  <defs>
    <linearGradient id="linear-gradient" x1="0" y1="0" x2="30" y2="30" gradientUnits="objectBoundingBox">
      <stop offset="0" stop-color="#ffcda5"/>
      <stop offset="1" stop-color="#ee4d5f"/>
      <stop offset="1"/>
    </linearGradient>
  </defs>
  <g id="Group_1981" data-name="Group 1981" transform="translate(-36 -139.5)">
    <rect id="Rectangle_1524" data-name="Rectangle 1524" width="28" height="28" rx="8" transform="translate(36 139.5)" fill="url(#linear-gradient)"/>
    <path id="Path_503" data-name="Path 503" d="M155.754,106.289c-.609-.425-1.26-.879-1.9-1.329a.524.524,0,0,0-.046-.032.857.857,0,0,0-.25-.141l-.007,0c-1.7-.411-3.435-.833-5.11-1.241l-4.557-1.107-.12-.032a1.165,1.165,0,0,0-.465-.06.324.324,0,0,0-.13.049l-.042.035a.516.516,0,0,0-.12.19l-.011.028v.162l.007.025c.961,2.689,1.946,5.416,2.9,8.056.732,2.032,1.492,4.137,2.235,6.2a.373.373,0,0,0,.338.246h.035a.4.4,0,0,0,.352-.193l2.787-4.06q1.019-1.481,2.038-2.967c.278-.4.556-.812.834-1.216.458-.668.929-1.357,1.4-2.028l.025-.035V106.8a.531.531,0,0,0-.19-.51m-3.266,1.48c-.655.341-1.323.692-2,1.04l1.175-1.258c.489-.527,1-1.072,1.5-1.606l.011-.011a1.61,1.61,0,0,1,.151-.165c.039-.039.081-.077.12-.123.26.179.524.362.778.541q.275.2.56.39c-.774.394-1.548.8-2.3,1.192m-1.682-.169c-.5.545-1.024,1.1-1.541,1.656-1-1.216-2.027-2.45-3.02-3.641l-1.355-1.627,0,0c-.1-.116-.2-.243-.3-.362-.063-.081-.13-.158-.2-.239.408.105.82.2,1.225.3.355.084.725.172,1.087.264l6.127,1.487c-.679.724-1.362,1.459-2.024,2.169m-1.77,6.85c.039-.369.081-.749.116-1.121.032-.3.063-.6.1-.9.049-.467.1-.953.144-1.427l.011-.084c.035-.3.07-.615.091-.928a1.063,1.063,0,0,1,.127-.06,1.637,1.637,0,0,0,.158-.077q1.219-.638,2.442-1.272c.813-.422,1.647-.858,2.474-1.29-.753,1.09-1.51,2.19-2.242,3.262-.63.917-1.277,1.863-1.922,2.794-.253.373-.517.752-.767,1.118-.282.408-.57.826-.852,1.244.035-.422.077-.847.123-1.262m-4.906-10.239c-.046-.127-.1-.257-.137-.38.95,1.146,1.907,2.3,2.84,3.416.482.58.964,1.156,1.446,1.74.1.109.19.225.282.337.12.144.239.3.37.439-.042.362-.077.728-.116,1.079-.025.246-.049.492-.077.742v0c-.011.158-.032.316-.049.471-.025.214-.081.7-.081.7l0,.025c-.063.71-.141,1.427-.215,2.123-.032.288-.06.583-.091.879-.018-.053-.039-.105-.056-.155-.053-.141-.106-.288-.155-.432l-.377-1.044q-1.79-4.972-3.579-9.944" transform="translate(-99.339 43.707)" fill="#fff"/>
  </g>
</svg>
