<svg xmlns="http://www.w3.org/2000/svg" xmlns:xlink="http://www.w3.org/1999/xlink" width="36" height="36" viewBox="0 0 36 36">
  <defs>
    <linearGradient id="linear-gradient" x1="0" y1="0" x2="40" y2="40" gradientUnits="objectBoundingBox">
      <stop offset="0" stop-color="#ff6cab"/>
      <stop offset="1" stop-color="#7366ff"/>
    </linearGradient>
  </defs>
  <g id="Group_7292" data-name="Group 7292" transform="translate(-27 -380)">
    <rect id="Rectangle_2122" data-name="Rectangle 2122" width="36" height="36" rx="18" transform="translate(27 380)" fill="url(#linear-gradient)"/>
    <path id="symbol" d="M13.784,7.4c.282-1.888-1.155-2.9-3.121-3.58L11.3,1.26,9.743.872l-.621,2.49c-.409-.1-.83-.2-1.247-.294L8.5.562,6.944.174,6.306,2.731c-.339-.077-.671-.153-.994-.234l0-.008L3.167,1.953,2.752,3.616s1.155.265,1.131.281a.829.829,0,0,1,.725.906L3.882,7.717a1.29,1.29,0,0,1,.162.052L3.88,7.728,2.861,11.81a.567.567,0,0,1-.714.37c.016.023-1.132-.282-1.132-.282L.243,13.68l2.026.505c.377.094.746.193,1.11.286l-.644,2.587,1.555.388.638-2.56c.425.115.837.222,1.241.322l-.636,2.548,1.557.388.644-2.582c2.655.5,4.651.3,5.492-2.1A2.732,2.732,0,0,0,11.8,9.685,2.483,2.483,0,0,0,13.784,7.4Zm-3.557,4.988c-.481,1.933-3.737.888-4.792.626l.855-3.427C7.345,9.849,10.729,10.371,10.226,12.387Zm.482-5.016c-.439,1.759-3.149.865-4.027.646l.775-3.109C8.335,5.127,11.165,5.536,10.708,7.371Z" transform="translate(37.705 388.993)" fill="#fff"/>
  </g>
</svg>
