<svg xmlns="http://www.w3.org/2000/svg" width="22.873" height="22.873" viewBox="0 0 22.873 22.873">
  <g id="baseline-remove_red_eye-24px" transform="translate(0 0)">
    <path id="Path_1081" data-name="Path 1081" d="M0,0H22.873V22.873H0Z" fill="none"/>
    <path id="Path_1082" data-name="Path 1082" d="M11.482,4.5A11.27,11.27,0,0,0,1,11.642a11.263,11.263,0,0,0,20.964,0A11.27,11.27,0,0,0,11.482,4.5Zm0,11.9a4.761,4.761,0,1,1,4.765-4.761A4.765,4.765,0,0,1,11.482,16.4Zm0-7.618a2.857,2.857,0,1,0,2.859,2.857A2.854,2.854,0,0,0,11.482,8.785Z" transform="translate(-0.046 -0.205)" fill="#fff"/>
  </g>
</svg>
