<svg xmlns="http://www.w3.org/2000/svg" width="28" height="28" viewBox="0 0 28 28">
  <g id="Group_7288" data-name="Group 7288" transform="translate(-117 -171)">
    <rect id="Rectangle_2215" data-name="Rectangle 2215" width="28" height="28" rx="14" transform="translate(117 171)" fill="#8f90a2"/>
    <path id="Path_1558" data-name="Path 1558" d="M154.884,106.02c-.567-.4-1.174-.819-1.767-1.238a.5.5,0,0,0-.043-.029.8.8,0,0,0-.233-.131l-.007,0c-1.587-.383-3.2-.776-4.761-1.156l-4.247-1.032-.111-.029a1.086,1.086,0,0,0-.433-.056.3.3,0,0,0-.121.046l-.039.033a.48.48,0,0,0-.111.177l-.01.026v.151l.007.023c.9,2.505,1.813,5.047,2.7,7.507.682,1.893,1.39,3.855,2.082,5.781a.347.347,0,0,0,.315.229h.033a.37.37,0,0,0,.328-.18l2.6-3.783q.949-1.38,1.9-2.764c.259-.377.518-.757.777-1.133.426-.622.866-1.264,1.3-1.89l.023-.033v-.039a.494.494,0,0,0-.177-.475m-3.043,1.379c-.61.318-1.233.645-1.859.969l1.1-1.173c.456-.491.931-1,1.4-1.5l.01-.01a1.5,1.5,0,0,1,.141-.154c.036-.036.075-.072.112-.115.243.167.489.337.725.5q.256.182.521.364c-.721.367-1.443.743-2.141,1.11m-1.567-.157c-.469.508-.954,1.028-1.436,1.543-.935-1.133-1.889-2.283-2.814-3.393l-1.263-1.516,0,0c-.1-.108-.187-.226-.279-.337-.059-.075-.121-.147-.184-.223.38.1.764.19,1.141.278.331.079.676.16,1.013.246l5.709,1.385c-.633.675-1.269,1.359-1.886,2.021m-1.649,6.383c.036-.344.075-.7.108-1.045.03-.278.059-.563.089-.835.046-.436.1-.888.134-1.33l.01-.079c.033-.282.066-.573.085-.865a.993.993,0,0,1,.118-.056,1.531,1.531,0,0,0,.148-.072q1.136-.594,2.276-1.186c.757-.393,1.535-.8,2.305-1.2-.7,1.015-1.407,2.04-2.089,3.039-.587.855-1.19,1.736-1.79,2.6-.236.347-.482.7-.715,1.041-.262.38-.531.77-.794,1.159.033-.393.072-.789.115-1.176m-4.571-9.54c-.043-.118-.089-.239-.128-.354.885,1.068,1.777,2.142,2.646,3.183.449.54.9,1.077,1.348,1.621.089.1.177.21.262.314.111.134.223.275.344.409-.039.337-.072.678-.108,1.005-.023.229-.046.459-.072.691v0c-.01.147-.029.295-.046.439-.023.2-.075.652-.075.652l0,.023c-.059.662-.131,1.33-.2,1.978-.03.269-.056.544-.085.819-.016-.049-.036-.1-.052-.144-.049-.131-.1-.269-.144-.4l-.351-.973q-1.667-4.633-3.335-9.265" transform="translate(-17.734 75.79)" fill="#534e73"/>
  </g>
</svg>
